<svg width="59" height="45" viewBox="0 0 59 45" fill="none" xmlns="http://www.w3.org/2000/svg">
<path d="M58.44 31.85C58.44 25.58 54.45 21.02 48.56 20.07C49.13 13.61 51.79 8.67 58.06 0.499989H49.89C40.01 7.91 34.12 19.5 34.12 29.76C34.12 38.88 39.25 44.01 46.28 44.01C53.31 44.01 58.44 38.88 58.44 31.85ZM24.62 31.85C24.62 25.58 20.82 21.02 14.74 20.07C15.5 13.61 17.97 8.67 24.43 0.499989H16.26C6.38 7.91 0.49 19.5 0.49 29.76C0.49 38.88 5.43 44.01 12.65 44.01C19.68 44.01 24.62 38.88 24.62 31.85Z" fill="url(#paint0_linear)"/>
<defs>
<linearGradient id="paint0_linear" x1="7" y1="-14.6475" x2="12.6359" y2="41.8556" gradientUnits="userSpaceOnUse">
<stop offset="0.494792" stop-color="#FA3E00"/>
<stop offset="1" stop-color="#FA3E00" stop-opacity="0.3"/>
</linearGradient>
</defs>
</svg>
