<svg width="20" height="20" viewBox="0 0 20 20" fill="none" xmlns="http://www.w3.org/2000/svg">
<path d="M15.8333 5.83331H4.16667C3.24619 5.83331 2.5 6.57951 2.5 7.49998V15C2.5 15.9205 3.24619 16.6666 4.16667 16.6666H15.8333C16.7538 16.6666 17.5 15.9205 17.5 15V7.49998C17.5 6.57951 16.7538 5.83331 15.8333 5.83331Z" stroke="url(#paint0_linear)" stroke-linecap="round" stroke-linejoin="round"/>
<path d="M6.66675 5.83333V4.16667C6.66675 3.72464 6.84234 3.30072 7.1549 2.98816C7.46746 2.67559 7.89139 2.5 8.33341 2.5H11.6667C12.1088 2.5 12.5327 2.67559 12.8453 2.98816C13.1578 3.30072 13.3334 3.72464 13.3334 4.16667V5.83333" stroke="url(#paint1_linear)" stroke-linecap="round" stroke-linejoin="round"/>
<path d="M10 10V10.0083" stroke="#FA3E00" stroke-linecap="round" stroke-linejoin="round"/>
<path d="M2.5 10.8334C4.82632 12.0056 7.39502 12.6162 10 12.6162C12.605 12.6162 15.1737 12.0056 17.5 10.8334" stroke="#FA3E00" stroke-linecap="round" stroke-linejoin="round"/>
<defs>
<linearGradient id="paint0_linear" x1="10" y1="5.83331" x2="10" y2="16.6666" gradientUnits="userSpaceOnUse">
<stop offset="0.494792" stop-color="#FA3E00"/>
<stop offset="1" stop-color="#FA3E00" stop-opacity="0.3"/>
</linearGradient>
<linearGradient id="paint1_linear" x1="10.0001" y1="2.5" x2="10.0001" y2="5.83333" gradientUnits="userSpaceOnUse">
<stop offset="0.494792" stop-color="#FA3E00"/>
<stop offset="1" stop-color="#FA3E00" stop-opacity="0.3"/>
</linearGradient>
</defs>
</svg>
