<svg width="20" height="20" viewBox="0 0 20 20" fill="none" xmlns="http://www.w3.org/2000/svg">
<path d="M13.3334 7.5C15.6346 7.5 17.5001 6.38071 17.5001 5C17.5001 3.61929 15.6346 2.5 13.3334 2.5C11.0322 2.5 9.16675 3.61929 9.16675 5C9.16675 6.38071 11.0322 7.5 13.3334 7.5Z" stroke="url(#paint0_linear)" stroke-linecap="round" stroke-linejoin="round"/>
<path d="M9.16675 5V8.33333C9.16675 9.71417 11.0326 10.8333 13.3334 10.8333C15.6342 10.8333 17.5001 9.71417 17.5001 8.33333V5" stroke="url(#paint1_linear)" stroke-linecap="round" stroke-linejoin="round"/>
<path d="M9.16675 8.33331V11.6666C9.16675 13.0475 11.0326 14.1666 13.3334 14.1666C15.6342 14.1666 17.5001 13.0475 17.5001 11.6666V8.33331" stroke="url(#paint2_linear)" stroke-linecap="round" stroke-linejoin="round"/>
<path d="M9.16675 11.6667V15C9.16675 16.3809 11.0326 17.5 13.3334 17.5C15.6342 17.5 17.5001 16.3809 17.5001 15V11.6667" stroke="url(#paint3_linear)" stroke-linecap="round" stroke-linejoin="round"/>
<path d="M5.83333 7.5H3.75C3.41848 7.5 3.10054 7.6317 2.86612 7.86612C2.6317 8.10054 2.5 8.41848 2.5 8.75C2.5 9.08152 2.6317 9.39946 2.86612 9.63388C3.10054 9.8683 3.41848 10 3.75 10H4.58333C4.91485 10 5.2328 10.1317 5.46722 10.3661C5.70164 10.6005 5.83333 10.9185 5.83333 11.25C5.83333 11.5815 5.70164 11.8995 5.46722 12.1339C5.2328 12.3683 4.91485 12.5 4.58333 12.5H2.5" stroke="#FA3E00" stroke-linecap="round" stroke-linejoin="round"/>
<path d="M4.16675 6.66669V7.50002M4.16675 12.5V13.3334V12.5Z" stroke="#FA3E00" stroke-linecap="round" stroke-linejoin="round"/>
<defs>
<linearGradient id="paint0_linear" x1="13.3334" y1="2.5" x2="13.3334" y2="7.5" gradientUnits="userSpaceOnUse">
<stop offset="0.494792" stop-color="#FA3E00"/>
<stop offset="1" stop-color="#FA3E00" stop-opacity="0.3"/>
</linearGradient>
<linearGradient id="paint1_linear" x1="13.3334" y1="5" x2="13.3334" y2="10.8333" gradientUnits="userSpaceOnUse">
<stop offset="0.494792" stop-color="#FA3E00"/>
<stop offset="1" stop-color="#FA3E00" stop-opacity="0.3"/>
</linearGradient>
<linearGradient id="paint2_linear" x1="13.3334" y1="8.33331" x2="13.3334" y2="14.1666" gradientUnits="userSpaceOnUse">
<stop offset="0.494792" stop-color="#FA3E00"/>
<stop offset="1" stop-color="#FA3E00" stop-opacity="0.3"/>
</linearGradient>
<linearGradient id="paint3_linear" x1="13.3334" y1="11.6667" x2="13.3334" y2="17.5" gradientUnits="userSpaceOnUse">
<stop offset="0.494792" stop-color="#FA3E00"/>
<stop offset="1" stop-color="#FA3E00" stop-opacity="0.3"/>
</linearGradient>
</defs>
</svg>
