<svg width="16" height="16" viewBox="0 0 16 16" fill="none" xmlns="http://www.w3.org/2000/svg">
<path d="M2.2 0.5C1.26112 0.5 0.5 1.24135 0.5 2.15584C0.5 3.07034 1.26112 3.81169 2.2 3.81169C3.13888 3.81169 3.9 3.07034 3.9 2.15584C3.9 1.24135 3.13888 0.5 2.2 0.5Z" fill="white"/>
<path d="M0.6 5.17532C0.544772 5.17532 0.5 5.21893 0.5 5.27273V15.4026C0.5 15.4564 0.544772 15.5 0.6 15.5H3.8C3.85523 15.5 3.9 15.4564 3.9 15.4026V5.27273C3.9 5.21893 3.85523 5.17532 3.8 5.17532H0.6Z" fill="white"/>
<path d="M5.8 5.17532C5.74477 5.17532 5.7 5.21893 5.7 5.27273V15.4026C5.7 15.4564 5.74477 15.5 5.8 15.5H9C9.05523 15.5 9.1 15.4564 9.1 15.4026V9.94805C9.1 9.56056 9.25804 9.18894 9.53934 8.91494C9.82065 8.64094 10.2022 8.48701 10.6 8.48701C10.9978 8.48701 11.3794 8.64094 11.6607 8.91494C11.942 9.18894 12.1 9.56056 12.1 9.94805V15.4026C12.1 15.4564 12.1448 15.5 12.2 15.5H15.4C15.4552 15.5 15.5 15.4564 15.5 15.4026V8.68591C15.5 6.79494 13.8115 5.31558 11.8799 5.48662C11.2842 5.53937 10.6952 5.68362 10.1452 5.9132L9.1 6.3495V5.27273C9.1 5.21893 9.05523 5.17532 9 5.17532H5.8Z" fill="white"/>
</svg>
