<svg width="8" height="15" viewBox="0 0 8 15" fill="none" xmlns="http://www.w3.org/2000/svg">
<path d="M5.66256 0.75C4.75619 0.75 3.88694 1.11713 3.24603 1.77061C2.60513 2.4241 2.24507 3.31042 2.24507 4.23459V6.17466H0.416256C0.324435 6.17466 0.25 6.25055 0.25 6.34418V8.90582C0.25 8.99944 0.324435 9.07534 0.416256 9.07534H2.24507V14.3305C2.24507 14.4241 2.31951 14.5 2.41133 14.5H4.92365C5.01547 14.5 5.0899 14.4241 5.0899 14.3305V9.07534H6.93492C7.01121 9.07534 7.07771 9.0224 7.09621 8.94694L7.72429 6.38529C7.75052 6.2783 7.67116 6.17466 7.563 6.17466H5.0899V4.23459C5.0899 4.07973 5.15024 3.93121 5.25763 3.82171C5.36502 3.7122 5.51068 3.65068 5.66256 3.65068H7.58374C7.67556 3.65068 7.75 3.57479 7.75 3.48116V0.919521C7.75 0.825897 7.67556 0.75 7.58374 0.75H5.66256Z" fill="white"/>
</svg>
