<svg width="14" height="10" viewBox="0 0 14 10" fill="none" xmlns="http://www.w3.org/2000/svg">
<path fill-rule="evenodd" clip-rule="evenodd" d="M12.6 0H1.4C1.01317 0 0.661674 0.141965 0.407638 0.370423C0.417163 0.376601 0.426595 0.383022 0.435927 0.389687L7 5.07828L13.5641 0.389687C13.5734 0.383023 13.5828 0.376601 13.5924 0.370424C13.3383 0.141965 12.9868 0 12.6 0ZM14 1.92166L7.43593 6.61025C7.17515 6.79652 6.82485 6.79652 6.56407 6.61025L0 1.92166V8.74999C0 9.43749 0.63 9.99999 1.4 9.99999H12.6C13.37 9.99999 14 9.43749 14 8.74999V1.92166Z" fill="white"/>
</svg>
