<svg width="12" height="12" viewBox="0 0 12 12" fill="none" xmlns="http://www.w3.org/2000/svg">
<path d="M0.607063 4.78322C2.00358 7.82661 4.48853 10.2463 7.57797 11.558L8.07321 11.7788C9.20623 12.2839 10.5382 11.9002 11.2292 10.8695L11.8764 9.90434C12.0868 9.59054 12.0227 9.16788 11.7288 8.93061L9.53401 7.15893C9.21163 6.89871 8.73759 6.95932 8.49097 7.29229L7.812 8.20902C6.06977 7.3491 4.65528 5.93379 3.79587 4.19053L4.71206 3.51116C5.04484 3.2644 5.10541 2.79008 4.84534 2.46752L3.07464 0.271361C2.83756 -0.0226916 2.41526 -0.0868328 2.10164 0.123577L1.13037 0.775216C0.0938829 1.47061 -0.287516 2.81433 0.228952 3.95103L0.606494 4.78198L0.607063 4.78322Z" fill="white"/>
</svg>
