<svg width="32" height="32" viewBox="0 0 32 32" fill="none" xmlns="http://www.w3.org/2000/svg">
<path d="M19.028 4.75057C19.028 3.07838 17.6725 1.72284 16.0003 1.72284C14.3281 1.72284 12.9726 3.07838 12.9726 4.75057V14.843C10.187 14.8463 7.92972 17.1036 7.92637 19.8892V25.2896L11.9633 30.3358V32.0001H13.9818V29.6273L9.94485 24.5811V19.8892C9.94485 18.217 11.3004 16.8615 12.9726 16.8615V23.9261H14.9911V4.75057C14.9911 4.19315 15.4429 3.74133 16.0003 3.74133C16.5577 3.74133 17.0095 4.19315 17.0095 4.75057V13.5956L20.3098 14.4958L20.8406 12.548L19.024 12.0534L19.028 4.75057Z" fill="#FA3E00"/>
<path d="M22.2568 15.032L24.2042 15.5627L24.7349 13.6153L22.7875 13.0846L22.2568 15.032Z" fill="#FA3E00"/>
<path d="M26.1522 16.0884L28.1112 16.6233V25.6085L25.0835 29.6455V32.0001H27.1019V30.3177L30.1297 26.2807V15.0811L26.6831 14.1415L26.1522 16.0884Z" fill="#FA3E00"/>
<path d="M5.61217 1.42707L4.1851 0L0.443848 3.74126L4.1851 7.48251L5.61217 6.05545L4.30722 4.7505H6.91712V2.73202H4.30722L5.61217 1.42707Z" fill="#FA3E00"/>
<path d="M10.9541 2.73204H8.93557V4.75052H10.9541V2.73204Z" fill="#FA3E00"/>
<path d="M26.3884 6.05545L27.8155 7.48251L31.5567 3.74126L27.8155 0L26.3884 1.42707L27.6934 2.73202H25.0835V4.7505H27.6934L26.3884 6.05545Z" fill="#FA3E00"/>
<path d="M23.0649 2.73204H21.0464V4.75052H23.0649V2.73204Z" fill="#FA3E00"/>
</svg>
