<svg width="200" height="55" viewBox="0 0 200 55" fill="none" xmlns="http://www.w3.org/2000/svg">
<path d="M0 0H8.23816V31.4641H0V0Z" fill="#FA3E00"/>
<path d="M39.5227 21.4552V31.4898H31.2845V0H48.3254C54.8184 0 59.6176 4.15758 59.6176 10.7019C59.6176 17.2462 54.8184 21.4552 48.3254 21.4552H39.5227ZM39.5227 7.64789V13.8073H48.3254C50.1732 13.8073 51.3794 12.7037 51.3794 10.7019C51.3794 8.77711 50.1732 7.64789 48.3254 7.64789H39.5227Z" fill="#FA3E00"/>
<path d="M19.8383 54.3821C8.90543 54.3821 0 45.4767 0 34.5438H8.36648C8.36648 40.8572 13.4993 45.99 19.8127 45.99C26.126 45.99 31.2588 40.8572 31.2588 34.5438H39.6253C39.651 45.4767 30.7712 54.3821 19.8383 54.3821Z" fill="#FA3E00"/>
<path d="M70.9098 0.282307H74.8621V13.9099H70.9098V0.282307Z" fill="white"/>
<path d="M81.7913 13.9099H78.147V3.61863H81.6887V4.61953C82.5869 3.79828 83.8188 3.33633 85.2817 3.33633C88.1304 3.33633 90.2092 4.97883 90.2092 7.64789V13.9356H86.5649V8.28949C86.5135 7.10895 85.7949 6.39035 84.4091 6.39035C82.9976 6.39035 81.817 7.16027 81.7913 8.67445V13.9099Z" fill="white"/>
<path d="M100.115 13.9099H95.9836L91.0817 3.61863H94.9827L98.0624 10.1886L101.168 3.61863H105.069L100.115 13.9099Z" fill="white"/>
<path d="M111.947 3.31066C115.848 3.31066 118.465 5.2868 118.465 8.75144V9.4957H109.175C109.483 10.6249 110.663 11.1895 112.152 11.1895C113.409 11.1895 114.539 10.8302 114.924 10.1116L118.08 11.5232C117.028 13.14 114.821 14.1922 112.152 14.1922C108.046 14.1922 105.428 12.1904 105.428 8.75144C105.428 5.31246 108.046 3.31066 111.947 3.31066ZM111.947 5.69742C110.689 5.69742 109.714 6.26203 109.278 7.33992H114.564C114.154 6.28769 113.204 5.69742 111.947 5.69742Z" fill="white"/>
<path d="M170.332 3.31066C174.233 3.31066 176.851 5.2868 176.851 8.75144V9.4957H167.561C167.869 10.6249 169.049 11.1895 170.538 11.1895C171.795 11.1895 172.924 10.8302 173.309 10.1116L176.466 11.5232C175.414 13.14 173.207 14.1922 170.538 14.1922C166.431 14.1922 163.814 12.1904 163.814 8.75144C163.814 5.31246 166.431 3.31066 170.332 3.31066ZM170.332 5.69742C169.075 5.69742 168.1 6.26203 167.663 7.33992H172.95C172.514 6.28769 171.564 5.69742 170.332 5.69742Z" fill="white"/>
<path d="M139.407 21.0445C143.308 21.0445 145.926 23.0207 145.926 26.4853V27.2296H136.635C136.943 28.3588 138.124 28.9234 139.612 28.9234C140.87 28.9234 141.999 28.5641 142.384 27.8455L145.541 29.257C144.489 30.8739 142.282 31.9261 139.612 31.9261C135.506 31.9261 132.888 29.9243 132.888 26.4853C132.888 23.0463 135.506 21.0445 139.407 21.0445ZM139.407 23.4313C138.15 23.4313 137.174 23.9959 136.738 25.0738H142.025C141.589 24.0216 140.639 23.4313 139.407 23.4313Z" fill="white"/>
<path d="M120.108 6.8523C120.108 4.72219 122.315 3.25934 125.934 3.25934C128.705 3.25934 131.092 4.33723 132.067 5.82574L128.782 7.10894C128.346 6.39035 127.14 6.03105 125.754 6.03105C124.65 6.03105 123.88 6.2107 123.88 6.64699C123.88 7.08328 124.804 7.2116 126.447 7.36559C128.859 7.5709 132.298 8.13551 132.298 10.7789C132.298 13.1143 129.809 14.2692 126.293 14.2692C123.136 14.2692 120.621 13.14 119.492 11.5488L122.828 10.1373C123.418 10.9842 124.753 11.5232 126.344 11.5232C127.807 11.5232 128.474 11.2665 128.474 10.7789C128.474 10.24 127.473 10.086 125.446 9.93199C122.443 9.67535 120.108 8.82844 120.108 6.8523Z" fill="white"/>
<path d="M150.571 8.26383C150.52 7.18594 149.929 6.41602 148.646 6.41602C147.389 6.41602 146.311 7.23727 146.259 8.62313V13.9099H142.615V3.61863H146.157V4.61953C147.004 3.82395 148.184 3.33633 149.519 3.33633C151.238 3.33633 152.624 4.05492 153.42 5.20981C154.344 4.05492 155.729 3.33633 157.398 3.33633C160.118 3.33633 162.12 5.03016 162.12 7.59656V13.9099H158.476V8.26383C158.424 7.18594 157.834 6.41602 156.551 6.41602C155.293 6.41602 154.215 7.26293 154.164 8.64879V13.9099H150.52V8.26383H150.571Z" fill="white"/>
<path d="M178.878 13.9099V3.61863H182.42V4.61953C183.318 3.79828 184.55 3.33633 186.013 3.33633C188.862 3.33633 190.941 4.97883 190.941 7.64789V13.9356H187.296V8.28949C187.245 7.10895 186.526 6.39035 185.141 6.39035C183.729 6.39035 182.548 7.16027 182.523 8.67445V13.9099H178.878Z" fill="white"/>
<path d="M77.9417 31.9518C76.5815 31.9518 75.401 31.5925 74.5284 30.8739V35.9297H70.8841V21.3525H74.4258V22.2251C75.324 21.4808 76.5302 21.0702 77.9417 21.0702C81.3551 21.0702 83.6648 23.0463 83.6648 26.511C83.6648 29.9756 81.3807 31.9518 77.9417 31.9518ZM77.2745 28.8721C78.8656 28.8721 79.9692 28.0508 79.9692 26.4853C79.9692 24.9198 78.8656 24.1242 77.2745 24.1242C75.6833 24.1242 74.5797 24.9198 74.5797 26.4853C74.5541 28.0508 75.6833 28.8721 77.2745 28.8721Z" fill="white"/>
<path d="M96.7535 27.5889C96.7535 28.5641 97.0358 28.8721 97.6517 28.8721C97.934 28.8721 98.4986 28.7694 98.8066 28.6667L98.3703 31.6181C98.0624 31.7464 97.0615 31.9004 96.4712 31.9004C95.0597 31.9004 94.0588 31.4128 93.5455 30.2579C93.5198 30.2066 93.4685 30.0783 93.4428 30.0526C92.4419 31.2075 90.8251 31.9261 88.9003 31.9261C86.6162 31.9261 84.8197 30.7712 84.8197 28.8207C84.8197 25.8437 89.2596 25.1508 93.0065 25.1508C92.8526 24.3039 92.0056 23.9959 90.6968 23.9959C89.3879 23.9959 88.4127 24.4578 87.9764 25.1764L84.9994 23.4826C86.0003 22.0711 88.464 21.0189 91.0304 21.0189C94.5977 21.0189 96.7278 22.7384 96.7278 26.126V27.5889H96.7535ZM93.0835 27.2552C93.0835 27.2296 93.0835 27.2039 93.0835 27.1782C90.3118 27.2296 88.618 27.5119 88.618 28.3844C88.618 28.8464 89.1313 29.103 89.8755 29.1287C91.4154 29.1287 92.9296 28.3588 93.0835 27.2552Z" fill="white"/>
<path d="M103.708 31.6438H100.064V21.3525H103.606V22.3021C104.401 21.5321 105.479 21.0445 106.711 21.0445C106.916 21.0445 107.481 21.0445 107.712 21.0959C107.866 22.2764 108.046 23.4313 108.225 24.6118C107.815 24.4322 107.045 24.3295 106.48 24.3295C104.863 24.3295 103.708 25.0225 103.708 26.5623V31.6438Z" fill="white"/>
<path d="M108.944 21.4808H111.048V20.2489L114.718 18.0162V21.4808H116.694V24.4322H114.718V27.5889C114.718 28.5641 114.975 28.8721 115.668 28.8721C116.104 28.8721 116.515 28.7437 116.925 28.6668L116.489 31.6181C116.104 31.7464 115.18 31.9004 114.513 31.9004C112.203 31.9004 111.074 30.7199 111.074 28.0765V24.4322H109.406L108.944 21.4808Z" fill="white"/>
<path d="M192.018 3.74695H194.123V2.51508L197.793 0.282307V3.74695H199.769V6.69832H197.793V9.855C197.793 10.8302 198.05 11.1382 198.742 11.1382C199.179 11.1382 199.589 11.0099 200 10.9329L199.564 13.8843C199.179 14.0126 198.255 14.1666 197.588 14.1666C195.278 14.1666 194.149 12.986 194.149 10.3426V6.69832H192.48L192.018 3.74695Z" fill="white"/>
<path d="M132.581 3.74695H134.685V2.51508L138.355 0.282307V3.74695H140.331V6.69832H138.355V9.855C138.355 10.8302 138.612 11.1382 139.304 11.1382C139.741 11.1382 140.151 11.0099 140.562 10.9329L140.126 13.8843C139.741 14.0126 138.817 14.1666 138.15 14.1666C135.84 14.1666 134.711 12.986 134.711 10.3426V6.69832H133.042L132.581 3.74695Z" fill="white"/>
<path d="M122.623 31.6438H118.979V21.3525H122.52V22.3534C123.418 21.5321 124.65 21.0702 126.113 21.0702C128.962 21.0702 131.041 22.7127 131.041 25.3818V31.6694H127.396V26.0747C127.345 24.9198 126.626 24.1755 125.241 24.1755C123.829 24.1755 122.649 24.9455 122.623 26.4596V31.6438Z" fill="white"/>
<path d="M151.572 31.6438H147.928V21.3525H151.469V22.3021C152.265 21.5321 153.343 21.0445 154.575 21.0445C154.78 21.0445 155.345 21.0445 155.576 21.0959C155.729 22.2764 155.909 23.4313 156.089 24.6118C155.678 24.4322 154.908 24.3295 154.344 24.3295C152.727 24.3295 151.572 25.0225 151.572 26.5623V31.6438Z" fill="white"/>
<path d="M157.192 24.5862C157.192 22.4561 159.399 20.9932 163.018 20.9932C165.79 20.9932 168.177 22.0711 169.152 23.5596L165.867 24.8428C165.431 24.1242 164.224 23.7649 162.838 23.7649C161.735 23.7649 160.965 23.9446 160.965 24.3809C160.965 24.8171 161.889 24.9455 163.531 25.0994C165.944 25.3048 169.383 25.8694 169.383 28.5128C169.383 30.8482 166.893 32.0031 163.377 32.0031C160.221 32.0031 157.706 30.8739 156.576 29.2827L159.913 27.8712C160.503 28.7181 161.838 29.257 163.429 29.257C164.892 29.257 165.559 29.0004 165.559 28.5128C165.559 27.9738 164.558 27.8198 162.53 27.6659C159.528 27.4092 157.192 26.5623 157.192 24.5862Z" fill="white"/>
</svg>
