<svg width="164" height="21" viewBox="0 0 164 21" fill="none" xmlns="http://www.w3.org/2000/svg">
<path d="M2.0119 0.348107H0.525987C0.458674 0.345801 0.391546 0.356095 0.328514 0.378389C0.265483 0.400683 0.207808 0.434531 0.158852 0.477961C0.109896 0.521391 0.070638 0.573533 0.0433653 0.63135C0.0160927 0.689166 0.00135119 0.7515 0 0.814719L0 20.1877C0.00134192 20.2509 0.0160979 20.3131 0.0434021 20.3708C0.0707064 20.4285 0.110009 20.4804 0.159003 20.5237C0.207998 20.5669 0.265697 20.6005 0.328716 20.6225C0.391735 20.6446 0.458804 20.6545 0.525987 20.6519H2.02505C2.15625 20.6506 2.28178 20.6015 2.37506 20.5149C2.46833 20.4282 2.52201 20.3109 2.52474 20.1877V0.814719C2.52197 0.689207 2.46655 0.56979 2.37053 0.482418C2.2745 0.395046 2.14562 0.346779 2.0119 0.348107ZM29.1344 0.348107H27.7011C27.6337 0.345462 27.5664 0.355521 27.5032 0.377692C27.44 0.399862 27.3822 0.433694 27.3332 0.47719C27.2841 0.520685 27.2449 0.572963 27.2177 0.630935C27.1906 0.688907 27.1761 0.751398 27.1751 0.814719V16.1561C27.1751 16.403 27.0331 16.4549 26.8569 16.2549L13.4127 0.713496C13.1972 0.496109 12.9001 0.365952 12.5842 0.350576H11.243C11.1108 0.350549 10.984 0.399132 10.8896 0.485903C10.7952 0.572674 10.7408 0.690721 10.738 0.814719V20.1877C10.7408 20.3126 10.7959 20.4314 10.8915 20.5183C10.987 20.6052 11.1152 20.6532 11.2482 20.6519H12.6842C12.7514 20.6545 12.8184 20.6446 12.8814 20.6225C12.9445 20.6005 13.0022 20.5669 13.0512 20.5237C13.1001 20.4804 13.1394 20.4285 13.1668 20.3708C13.1941 20.3131 13.2088 20.2509 13.2102 20.1877V4.46861C13.2102 4.22173 13.3495 4.16988 13.5257 4.36986L27.3303 20.2865C27.5403 20.5014 27.8303 20.6323 28.1403 20.6519H29.1265C29.1937 20.6545 29.2608 20.6446 29.3238 20.6225C29.3868 20.6005 29.4445 20.5669 29.4935 20.5237C29.5425 20.4804 29.5818 20.4285 29.6091 20.3708C29.6364 20.3131 29.6512 20.2509 29.6525 20.1877V0.814719C29.6511 0.7515 29.6364 0.689166 29.6091 0.63135C29.5819 0.573533 29.5426 0.521391 29.4936 0.477961C29.4447 0.434531 29.387 0.400683 29.324 0.378389C29.2609 0.356095 29.1938 0.345801 29.1265 0.348107H29.1344ZM51.4257 0.348107H34.8834C34.8161 0.345801 34.749 0.356095 34.686 0.378389C34.6229 0.400683 34.5653 0.434531 34.5163 0.477961C34.4673 0.521391 34.4281 0.573533 34.4008 0.63135C34.3735 0.689166 34.3588 0.7515 34.3574 0.814719V1.99977C34.3588 2.06298 34.3735 2.12532 34.4008 2.18313C34.4281 2.24095 34.4673 2.29309 34.5163 2.33652C34.5653 2.37995 34.6229 2.4138 34.686 2.43609C34.749 2.45839 34.8161 2.46868 34.8834 2.46638H41.3636C41.4973 2.46505 41.6262 2.51332 41.7222 2.60069C41.8182 2.68806 41.8737 2.80748 41.8764 2.93299V20.1877C41.8774 20.251 41.8919 20.3133 41.9191 20.3712C41.9463 20.429 41.9856 20.4812 42.0346 20.5245C42.0837 20.5678 42.1416 20.6013 42.2047 20.6232C42.2679 20.6451 42.3351 20.6549 42.4024 20.6519H43.9199C43.9871 20.6545 44.0541 20.6446 44.1171 20.6225C44.1802 20.6005 44.2379 20.5669 44.2869 20.5237C44.3359 20.4804 44.3752 20.4285 44.4025 20.3708C44.4298 20.3131 44.4445 20.2509 44.4459 20.1877V2.93299C44.4479 2.80748 44.5027 2.6878 44.5982 2.59997C44.6938 2.51214 44.8224 2.46324 44.9561 2.46391H51.4389C51.5061 2.46689 51.5734 2.45715 51.6365 2.43526C51.6997 2.41336 51.7576 2.37977 51.8066 2.33647C51.8557 2.29317 51.895 2.24105 51.9222 2.1832C51.9493 2.12536 51.9639 2.06298 51.9648 1.99977V0.814719C51.9639 0.751398 51.9494 0.688907 51.9222 0.630935C51.8951 0.572963 51.8558 0.520685 51.8068 0.47719C51.7577 0.433694 51.6999 0.399862 51.6367 0.377692C51.5735 0.355521 51.5063 0.345462 51.4389 0.348107H51.4257ZM72.4915 18.5632H59.7126C59.6454 18.5659 59.5784 18.5559 59.5154 18.5339C59.4523 18.5119 59.3946 18.4783 59.3456 18.435C59.2966 18.3918 59.2573 18.3398 59.23 18.2821C59.2027 18.2244 59.188 18.1622 59.1866 18.0991V11.927C59.1876 11.8638 59.2021 11.8014 59.2293 11.7436C59.2565 11.6857 59.2958 11.6336 59.3449 11.5903C59.3939 11.547 59.4518 11.5134 59.515 11.4915C59.5781 11.4696 59.6454 11.4599 59.7126 11.4628H69.3434C69.4098 11.4638 69.4756 11.4525 69.5373 11.4296C69.599 11.4067 69.6552 11.3726 69.7028 11.3293C69.7505 11.2859 69.7885 11.2342 69.8148 11.1771C69.8412 11.1199 69.8553 11.0585 69.8563 10.9962V9.83341C69.8508 9.71008 69.794 9.59367 69.6981 9.5092C69.6023 9.42473 69.4749 9.37892 69.3434 9.38161H59.7126C59.6454 9.38426 59.5784 9.37428 59.5154 9.35226C59.4523 9.33024 59.3946 9.29663 59.3456 9.25339C59.2966 9.21016 59.2573 9.15817 59.23 9.10049C59.2027 9.0428 59.188 8.98058 59.1866 8.91747V2.90336C59.1876 2.84004 59.2021 2.77755 59.2293 2.71958C59.2564 2.66161 59.2957 2.60933 59.3447 2.56583C59.3937 2.52234 59.4516 2.48851 59.5148 2.46634C59.5779 2.44416 59.6452 2.4341 59.7126 2.43675H72.3363C72.4693 2.43874 72.5978 2.39137 72.6939 2.30492C72.7899 2.21847 72.8457 2.09993 72.8491 1.97508V0.814719C72.8478 0.751608 72.833 0.689385 72.8057 0.6317C72.7784 0.574014 72.7391 0.52203 72.6901 0.478796C72.6412 0.435562 72.5835 0.40195 72.5204 0.379932C72.4574 0.357914 72.3903 0.347933 72.3232 0.350576H57.1905C57.1233 0.34759 57.056 0.357334 56.9929 0.379227C56.9297 0.40112 56.8718 0.434715 56.8228 0.478015C56.7737 0.521316 56.7344 0.573437 56.7072 0.63128C56.68 0.689122 56.6655 0.751505 56.6645 0.814719V20.1877C56.6659 20.2509 56.6806 20.3131 56.7079 20.3708C56.7352 20.4285 56.7745 20.4804 56.8235 20.5237C56.8725 20.5669 56.9302 20.6005 56.9933 20.6225C57.0563 20.6446 57.1233 20.6545 57.1905 20.6519H72.4862C72.6197 20.6539 72.7486 20.6062 72.8447 20.5192C72.9408 20.4322 72.9963 20.313 72.9991 20.1877V19.0299C72.998 18.9676 72.9839 18.9062 72.9576 18.849C72.9313 18.7919 72.8932 18.7402 72.8456 18.6968C72.798 18.6535 72.7417 18.6194 72.6801 18.5965C72.6184 18.5736 72.5525 18.5623 72.4862 18.5632H72.4915ZM116.406 0.348107H99.8664C99.799 0.345462 99.7318 0.355521 99.6686 0.377692C99.6054 0.399862 99.5476 0.433694 99.4985 0.47719C99.4495 0.520685 99.4103 0.572963 99.3831 0.630935C99.356 0.688907 99.3415 0.751398 99.3405 0.814719V1.99977C99.3415 2.06309 99.356 2.12558 99.3831 2.18355C99.4103 2.24152 99.4495 2.2938 99.4985 2.33729C99.5476 2.38079 99.6054 2.41462 99.6686 2.43679C99.7318 2.45896 99.799 2.46902 99.8664 2.46638H106.349C106.483 2.46505 106.612 2.51332 106.708 2.60069C106.804 2.68806 106.859 2.80748 106.862 2.93299V20.1877C106.863 20.2497 106.877 20.3108 106.903 20.3676C106.93 20.4245 106.967 20.4759 107.015 20.519C107.062 20.5621 107.118 20.5961 107.179 20.6188C107.241 20.6416 107.306 20.6529 107.372 20.6519H108.903C108.97 20.6542 109.037 20.644 109.1 20.6218C109.163 20.5997 109.22 20.5661 109.269 20.5229C109.318 20.4797 109.357 20.4279 109.385 20.3704C109.412 20.3128 109.427 20.2508 109.429 20.1877V2.93299C109.432 2.80962 109.487 2.6923 109.58 2.60573C109.674 2.51915 109.8 2.47008 109.931 2.46885H116.417C116.55 2.47017 116.678 2.42217 116.773 2.33526C116.869 2.24835 116.924 2.12956 116.927 2.0047V0.814719C116.925 0.68943 116.87 0.57001 116.774 0.482571C116.679 0.395131 116.55 0.346787 116.417 0.348107H116.406ZM130.56 0C123.762 0 119.136 4.90066 119.136 10.5296C119.136 16.1586 123.704 21 130.508 21C137.311 21 141.943 16.0993 141.943 10.4704C141.943 4.84141 137.367 0 130.56 0ZM130.56 18.8842C125.45 18.8842 121.745 15.1118 121.745 10.4704C121.745 5.82894 125.385 2.11827 130.497 2.11827C135.61 2.11827 139.313 5.8882 139.313 10.5296C139.313 15.1711 135.673 18.8842 130.56 18.8842ZM92.2002 15.3686L89.707 12.3566C93.2206 11.7764 95.7743 9.80379 95.7743 6.419C95.7743 2.76264 92.6184 0.355514 87.6925 0.355514H78.5929C78.4592 0.354186 78.3303 0.402452 78.2343 0.489824C78.1383 0.577196 78.0828 0.696613 78.0801 0.822126V20.1877C78.0828 20.313 78.1384 20.4322 78.2345 20.5192C78.3306 20.6062 78.4594 20.6539 78.5929 20.6519H80.092C80.158 20.6529 80.2235 20.6416 80.2848 20.6188C80.3462 20.5961 80.4021 20.5621 80.4495 20.519C80.4969 20.4759 80.5347 20.4245 80.5609 20.3676C80.5871 20.3108 80.6012 20.2497 80.6022 20.1877V2.93299C80.6035 2.86966 80.6183 2.80721 80.6455 2.74927C80.6728 2.69132 80.712 2.63901 80.7609 2.59539C80.8098 2.55176 80.8675 2.51768 80.9305 2.49511C80.9935 2.47254 81.0607 2.46194 81.1282 2.46391H87.5137C91.1245 2.46391 93.2311 3.97484 93.2311 6.498C93.2311 9.02116 91.2271 10.3272 87.9713 10.7518C87.6031 10.7987 86.5853 10.8135 86.6247 11.8702C86.6653 12.1495 86.7771 12.4155 86.9508 12.6454C87.0902 12.8528 87.2375 13.038 87.3164 13.1392L88.6182 14.7193L89.1442 15.371L93.1838 20.2816C93.2866 20.3919 93.412 20.4817 93.5525 20.5458C93.693 20.6098 93.8457 20.6467 94.0017 20.6544H96.0767C96.3581 20.6544 96.4502 20.4865 96.2792 20.2816L92.2002 15.3686ZM155.639 0.348107H147.784C147.716 0.345462 147.649 0.355521 147.586 0.377692C147.523 0.399862 147.465 0.433694 147.416 0.47719C147.367 0.520685 147.328 0.572963 147.3 0.630935C147.273 0.688907 147.259 0.751398 147.258 0.814719V20.1877C147.259 20.2509 147.274 20.3131 147.301 20.3708C147.329 20.4285 147.368 20.4804 147.417 20.5237C147.466 20.5669 147.524 20.6005 147.587 20.6225C147.65 20.6446 147.717 20.6545 147.784 20.6519H149.28C149.348 20.6549 149.415 20.6451 149.478 20.6232C149.541 20.6013 149.599 20.5678 149.648 20.5245C149.697 20.4812 149.736 20.429 149.764 20.3712C149.791 20.3133 149.805 20.251 149.806 20.1877V2.93299C149.809 2.80725 149.864 2.68758 149.96 2.59981C150.056 2.51205 150.185 2.46323 150.319 2.46391H155.461C159.069 2.46391 161.465 3.97484 161.465 6.90783C161.465 9.42358 159.361 11.1567 156.052 11.3764H155.35C155.282 11.3734 155.214 11.3835 155.15 11.406C155.086 11.4285 155.028 11.4629 154.979 11.5073C154.929 11.5517 154.89 11.605 154.864 11.664C154.837 11.723 154.824 11.7864 154.824 11.8505V13.0034C154.825 13.0655 154.839 13.1269 154.866 13.1839C154.892 13.2409 154.93 13.2924 154.978 13.3356C155.025 13.3787 155.082 13.4126 155.143 13.4352C155.205 13.4579 155.271 13.4689 155.337 13.4676H156.11C160.542 13.312 164 10.9617 164 6.82883C164 2.7972 160.678 0.360451 155.632 0.360451" fill="white"/>
</svg>
