<svg width="164" height="29" viewBox="0 0 164 29" fill="none" xmlns="http://www.w3.org/2000/svg">
<path fill-rule="evenodd" clip-rule="evenodd" d="M80.9741 14.1721C80.9741 18.1264 84.2512 21.3442 88.2786 21.3442C88.613 21.3442 88.8846 21.6108 88.8846 21.9396C88.8846 22.2683 88.613 22.5341 88.2786 22.5341C83.5829 22.5341 79.7623 18.783 79.7623 14.1721V6.86729V0.595367C79.7623 0.266613 80.0339 0 80.3682 0C80.7026 0 80.9741 0.266613 80.9741 0.595367V6.27192H84.0361C84.3705 6.27192 84.642 6.53812 84.642 6.86729C84.642 7.19604 84.3705 7.46182 84.0361 7.46182H80.9741V14.1721ZM15.6756 17.0489C15.6162 16.9019 15.5007 16.7839 15.3532 16.7209L1.42748 10.7748C2.69357 8.46306 5.15606 6.999 7.858 6.999C10.3008 6.999 12.5713 8.19225 13.9328 10.19C14.1179 10.4629 14.4946 10.5368 14.7734 10.3541C15.0513 10.1711 15.1262 9.80117 14.9397 9.52826C13.3538 7.19927 10.7062 5.8091 7.858 5.8091C4.47064 5.8091 1.40567 7.78246 0.0506412 10.8353C-0.0134973 10.9797 -0.0164904 11.1439 0.0420894 11.2904C0.101097 11.4382 0.217401 11.5554 0.364492 11.6183L14.2911 17.5653C13.025 19.8787 10.5617 21.3441 7.858 21.3441C5.22918 21.3441 2.79149 19.9438 1.49589 17.6875C1.33127 17.4015 0.961835 17.3008 0.669791 17.462C0.378603 17.6236 0.275553 17.986 0.440176 18.2723C1.95 20.9015 4.79304 22.534 7.858 22.534C11.2479 22.534 14.3125 20.5602 15.6671 17.504C15.7316 17.3596 15.7342 17.1958 15.6756 17.0489ZM36.2082 5.80922C33.9445 5.80922 31.987 7.09821 31.0412 8.96492C30.0958 7.09821 28.1383 5.80922 25.8751 5.80922C22.6917 5.80922 20.1017 8.35234 20.1017 11.4774V21.9299C20.1017 22.2586 20.3733 22.5244 20.7081 22.5244C21.0429 22.5244 21.3144 22.2586 21.3144 21.9299V11.4774C21.3144 9.00817 23.36 6.99912 25.8751 6.99912C28.3897 6.99912 30.4349 9.00817 30.4349 11.4774V21.9299C30.4349 22.2586 30.7064 22.5244 31.0412 22.5244C31.376 22.5244 31.6475 22.2586 31.6475 21.9299V11.4774C31.6475 9.00817 33.6931 6.99912 36.2082 6.99912C38.7229 6.99912 40.768 9.00817 40.768 11.4774V21.9299C40.768 22.2586 41.0395 22.5244 41.3743 22.5244C41.7091 22.5244 41.9807 22.2586 41.9807 21.9299V11.4774C41.9807 8.35234 39.3908 5.80922 36.2082 5.80922ZM46.0587 14.1721C46.0587 9.56113 49.8792 5.80922 54.575 5.80922C59.2708 5.80922 63.0913 9.56113 63.0913 14.1721V21.9299C63.0913 22.2586 62.8198 22.5244 62.4854 22.5244C62.1511 22.5244 61.8795 22.2586 61.8795 21.9299V14.1721C61.8795 10.217 58.6025 6.99912 54.575 6.99912C50.5476 6.99912 47.2705 10.217 47.2705 14.1721C47.2705 18.1263 50.5476 21.3442 54.575 21.3442H58.3006C58.635 21.3442 58.9065 21.6108 58.9065 21.9395C58.9065 22.2683 58.635 22.5341 58.3006 22.5341H54.575C49.8792 22.5341 46.0587 18.783 46.0587 14.1721ZM162.788 6.40459C162.788 6.07584 163.059 5.80922 163.394 5.80922C163.729 5.80922 164 6.07584 164 6.40459V14.1229V20.6371C164 25.2485 160.18 29 155.484 29C153.413 29 151.417 28.2614 149.863 26.9204C149.612 26.7033 149.587 26.3275 149.808 26.0807C150.029 25.8329 150.411 25.8094 150.663 26.0265C151.996 27.1765 153.708 27.8101 155.484 27.8101C159.511 27.8101 162.788 24.5922 162.788 20.6371V18.4001C161.3 20.8416 158.587 22.485 155.484 22.485C150.788 22.485 146.967 18.7339 146.967 14.1229V6.40459C146.967 6.07584 147.238 5.80922 147.573 5.80922C147.908 5.80922 148.179 6.07584 148.179 6.40459V14.1229C148.179 18.0772 151.456 21.2951 155.484 21.2951C159.511 21.2951 162.788 18.0772 162.788 14.1229V6.40459ZM133.467 5.80922C128.771 5.80922 124.951 9.56113 124.951 14.1721C124.951 18.783 128.771 22.5341 133.467 22.5341H137.193C137.527 22.5341 137.799 22.2683 137.799 21.9395C137.799 21.6108 137.527 21.3442 137.193 21.3442H133.467C129.44 21.3442 126.163 18.1263 126.163 14.1721C126.163 10.217 129.44 6.99912 133.467 6.99912C137.495 6.99912 140.772 10.217 140.772 14.1721V21.9299C140.772 22.2586 141.043 22.5244 141.378 22.5244C141.712 22.5244 141.983 22.2586 141.983 21.9299V14.1721C141.983 9.56113 138.163 5.80922 133.467 5.80922ZM68.1013 14.1721C68.1013 9.56113 71.9218 5.80922 76.6176 5.80922C76.9519 5.80922 77.2235 6.07584 77.2235 6.40459C77.2235 6.73335 76.9519 6.99912 76.6176 6.99912C72.5901 6.99912 69.313 10.217 69.313 14.1721V21.9395C69.313 22.2683 69.0415 22.5341 68.7072 22.5341C68.3728 22.5341 68.1013 22.2683 68.1013 21.9395V14.1721ZM119.731 6.40459C119.731 6.07584 120.002 5.80922 120.337 5.80922C120.671 5.80922 120.943 6.07584 120.943 6.40459V16.8563C120.943 19.9821 118.353 22.5244 115.17 22.5244C112.907 22.5244 110.949 21.2359 110.003 19.3696C109.058 21.2359 107.101 22.5244 104.837 22.5244C101.654 22.5244 99.064 19.9821 99.064 16.8563V6.40459C99.064 6.07584 99.3355 5.80922 99.6703 5.80922C100.005 5.80922 100.277 6.07584 100.277 6.40459V16.8563C100.277 19.3251 102.322 21.3345 104.837 21.3345C107.352 21.3345 109.397 19.3251 109.397 16.8563V6.40459C109.397 6.07584 109.669 5.80922 110.003 5.80922C110.338 5.80922 110.61 6.07584 110.61 6.40459V16.8563C110.61 19.3251 112.655 21.3345 115.17 21.3345C117.685 21.3345 119.731 19.3251 119.731 16.8563V6.40459ZM92.9888 22.5243C92.6545 22.5243 92.3829 22.2585 92.3829 21.9298V6.40447C92.3829 6.07572 92.6545 5.8091 92.9888 5.8091C93.3232 5.8091 93.5947 6.07572 93.5947 6.40447V21.9298C93.5947 22.2585 93.3232 22.5243 92.9888 22.5243ZM92.9888 4.07316C93.7452 4.07316 94.3588 3.47108 94.3588 2.72834C94.3588 1.98518 93.7452 1.3831 92.9888 1.3831C92.2319 1.3831 91.6188 1.98518 91.6188 2.72834C91.6188 3.47108 92.2319 4.07316 92.9888 4.07316Z" fill="white"/>
</svg>
