<svg width="190" height="19" viewBox="0 0 190 19" fill="none" xmlns="http://www.w3.org/2000/svg">
<path fill-rule="evenodd" clip-rule="evenodd" d="M188.445 0H187.765C187.717 0.393697 187.392 0.589367 186.793 0.589367C186.194 0.589367 185.868 0.393697 185.819 0H185.14C185.177 0.774821 185.728 1.16223 186.793 1.16223C187.857 1.16223 188.408 0.774821 188.445 0ZM184.592 6.85198V1.64198H183.585V7.53565H185.173L188.984 2.32446V7.53565H189.999V1.64198H188.412L184.592 6.85198ZM121.022 1.64201L123.639 5.51415L125.66 1.64083H126.78L124.319 6.00214C123.98 6.61351 123.668 7.03 123.385 7.2516C123.102 7.4732 122.712 7.58401 122.215 7.58401C122.019 7.58401 121.755 7.5675 121.423 7.5345V6.70113C121.662 6.72353 121.889 6.73414 122.101 6.73414C122.315 6.74184 122.527 6.694 122.718 6.59505C122.917 6.46889 123.08 6.29022 123.189 6.07758L123.27 5.90902H122.871L119.876 1.64201H121.022ZM114.55 2.46707V4.00767L117.355 4.00885C118.006 4.00964 118.523 4.15973 118.904 4.45913C119.286 4.75853 119.477 5.19466 119.477 5.76752C119.48 6.3506 119.289 6.79106 118.904 7.08888C118.52 7.38671 118.003 7.53562 117.355 7.53562H113.526V1.64195H118.894V2.46707H114.55ZM114.55 4.82336V6.70933L117.266 6.71405C117.643 6.71405 117.933 6.63153 118.138 6.46533C118.24 6.38117 118.321 6.27304 118.375 6.14998C118.428 6.02693 118.452 5.89255 118.444 5.75809C118.45 5.62617 118.426 5.49458 118.373 5.37438C118.32 5.25419 118.239 5.14889 118.138 5.06735C117.933 4.90469 117.643 4.82336 117.266 4.82336H114.55ZM132.981 1.64195H127.965C127.929 2.74736 127.828 3.84952 127.663 4.94241C127.526 5.73295 127.319 6.30817 127.041 6.66808H126.452V8.89824H127.402V7.53445H132.726V8.89706H133.687V6.6669H132.984L132.981 1.64195ZM128.04 6.6669C128.267 6.23077 128.433 5.76309 128.53 5.27835C128.667 4.69527 128.784 3.77193 128.882 2.50832H131.95V6.6669H128.04ZM135.886 1.64083V7.5345H134.855V1.64083H135.886ZM143.196 4.08665C143.329 3.97823 143.435 3.83916 143.506 3.68068C143.577 3.52219 143.611 3.34873 143.605 3.17431C143.608 2.95443 143.557 2.73732 143.457 2.54305C143.357 2.34877 143.211 2.18359 143.032 2.06276C142.65 1.78222 142.15 1.64195 141.53 1.64195H137.678V7.53562H141.522C142.259 7.53562 142.825 7.39653 143.22 7.11835C143.408 6.99341 143.562 6.82029 143.666 6.61595C143.769 6.4116 143.82 6.18303 143.812 5.95258C143.812 5.10547 143.245 4.62847 142.111 4.5216C142.505 4.48324 142.881 4.33262 143.196 4.08665ZM141.486 2.46707C141.762 2.4553 142.036 2.53323 142.267 2.68985C142.362 2.76066 142.439 2.85366 142.493 2.96124C142.546 3.06881 142.574 3.18789 142.574 3.30868C142.574 3.42948 142.546 3.54855 142.493 3.65613C142.439 3.7637 142.362 3.85671 142.267 3.92752C142.036 4.08414 141.762 4.16207 141.486 4.1503H138.713V2.46707H141.486ZM138.713 6.71051V4.94948H141.511C142.361 4.94948 142.786 5.23866 142.787 5.81703C142.787 6.41111 142.334 6.70855 141.428 6.70933L138.713 6.71051ZM150.765 6.70108V7.53444L145.235 7.53562V1.64195H150.601V2.47532H146.266V4.14205H149.693V4.93298H146.266V6.70108H150.765ZM153.104 3.0058C153.05 4.42028 152.961 5.39077 152.838 5.91727C152.715 6.44378 152.431 6.70781 151.984 6.70938C151.897 6.70938 151.763 6.70113 151.583 6.68345V7.54275C151.8 7.56475 152.021 7.57575 152.245 7.57575C152.476 7.58068 152.705 7.5452 152.924 7.47085C153.122 7.39636 153.289 7.25558 153.399 7.07125C153.513 6.89528 153.613 6.70955 153.698 6.51607C153.793 6.24332 153.854 5.95876 153.877 5.66974C153.924 5.27958 153.956 4.95425 153.976 4.69257C153.995 4.43089 154.015 4.02423 154.037 3.46787L154.048 3.24527L154.049 3.24193L154.049 3.2352L154.05 3.22175L154.05 3.22085C154.065 2.92388 154.078 2.68659 154.086 2.50838H157.342V7.5345H158.373V1.64083H153.163C153.147 1.96616 153.127 2.42076 153.105 3.00462L153.104 3.0058ZM161.204 1.64195V3.91455L163.853 3.91573C164.511 3.91652 165.031 4.06818 165.412 4.37072C165.794 4.67327 165.985 5.12472 165.985 5.72509C165.987 6.32546 165.797 6.7773 165.412 7.08063C165.028 7.38396 164.509 7.53562 163.853 7.53562H160.173V1.64195H161.204ZM161.204 4.75499V6.6669L163.805 6.66572C164.104 6.6823 164.4 6.5965 164.647 6.42172C164.751 6.3373 164.834 6.22809 164.889 6.10346C164.943 5.97884 164.967 5.84253 164.959 5.70623C164.966 5.5712 164.942 5.4363 164.888 5.31311C164.833 5.18992 164.751 5.08213 164.647 4.99899C164.4 4.82421 164.104 4.73841 163.805 4.75499H161.204ZM172.541 4.09967H168.353V1.64201H167.322V7.53568H168.353V4.97547H172.541V7.5345H173.572V1.64083H172.541V4.09967ZM176.377 1.64201V6.85201L180.197 1.64083H181.784V7.5345H180.77V2.32332L176.958 7.53568H175.371V1.64201H176.377ZM119.597 11.7425L116.996 14.6127L119.803 17.635H118.558L116.358 15.261L114.149 17.635H112.972L115.761 14.6387L113.135 11.7425H114.378L116.367 14.0234L118.412 11.7425H119.597ZM123.64 17.7352C124.774 17.7352 125.656 17.4574 126.286 16.9018C126.916 16.3463 127.231 15.6084 127.231 14.6882C127.231 13.7688 126.916 13.0309 126.286 12.4745C125.656 11.9182 124.774 11.6404 123.64 11.6412C122.506 11.6412 121.624 11.9189 120.994 12.4745C120.364 13.0301 120.049 13.768 120.049 14.6882C120.049 15.6092 120.364 16.3471 120.994 16.9018C121.624 17.4566 122.506 17.7344 123.64 17.7352ZM123.64 12.5087C124.452 12.5087 125.081 12.7122 125.529 13.1193C125.74 13.3187 125.909 13.5612 126.025 13.8314C126.14 14.1016 126.2 14.3936 126.2 14.6888C126.2 14.984 126.14 15.2759 126.025 15.5461C125.909 15.8163 125.74 16.0588 125.529 16.2583C125.082 16.6645 124.452 16.8681 123.64 16.8688C122.827 16.8696 122.197 16.6661 121.75 16.2583C121.539 16.0586 121.37 15.8161 121.255 15.5459C121.139 15.2757 121.08 14.9839 121.08 14.6888C121.08 14.3937 121.139 14.1018 121.255 13.8317C121.37 13.5615 121.539 13.3189 121.75 13.1193C122.198 12.7114 122.828 12.5079 123.64 12.5087ZM129.002 16.019C129.124 15.4917 129.213 14.5208 129.268 13.1063V13.1052C129.29 12.5213 129.309 12.0667 129.325 11.7414H134.536V17.635H133.505V12.6101H130.25C130.239 12.8341 130.223 13.1539 130.2 13.5696C130.179 14.1248 130.157 14.5338 130.139 14.7943C130.12 15.0548 130.087 15.3801 130.041 15.7703C130.017 16.0592 129.957 16.3437 129.861 16.6166C129.776 16.8096 129.676 16.9953 129.562 17.1718C129.452 17.3556 129.285 17.4963 129.088 17.5714C128.869 17.6462 128.639 17.6817 128.409 17.6763C128.185 17.6771 127.964 17.6661 127.747 17.6433V16.784C127.926 16.8017 128.059 16.8099 128.148 16.8099C128.595 16.8099 128.88 16.5463 129.002 16.019ZM142.175 11.7425H137.161C137.125 12.8479 137.024 13.9501 136.859 15.043C136.722 15.8351 136.514 16.4103 136.236 16.7686H135.648V19H136.596V17.635H141.922V18.9988H142.878V16.7675H142.175V11.7425ZM137.239 16.7675C137.466 16.3312 137.632 15.8636 137.73 15.3789C137.867 14.7958 137.984 13.8729 138.082 12.6101H141.15V16.7675H137.239ZM145.055 11.7425V16.9525L148.876 11.7425H150.462V17.6362H149.449V12.425L145.636 17.6362H144.05V11.7425H145.055ZM157.482 14.2002H153.294V11.7425H152.263V17.6362H153.294V15.076H157.482V17.635H158.513V11.7414H157.482V14.2002ZM161.342 12.6101V17.635L160.311 17.6362V11.7425H165.237V12.6101H161.342ZM75.7747 1.64083H54.9577C54.5897 1.64114 54.2368 1.79179 53.9767 2.05968C53.7166 2.32756 53.5704 2.69076 53.5704 3.06945V17.0634C53.5704 17.2148 53.6288 17.36 53.7328 17.4672C53.8367 17.5744 53.9777 17.6348 54.1249 17.6351H61.3419C61.4148 17.6351 61.4871 17.6203 61.5545 17.5916C61.6219 17.5628 61.6831 17.5207 61.7347 17.4676C61.7863 17.4145 61.8272 17.3515 61.8552 17.2822C61.8831 17.2128 61.8975 17.1385 61.8975 17.0634V12.4934H75.7747C76.5108 12.4934 77.2168 12.1925 77.7374 11.6569C78.2579 11.1213 78.5503 10.3948 78.5503 9.63736V4.4969C78.5503 3.73942 78.2579 3.01297 77.7374 2.47735C77.2168 1.94173 76.5108 1.64083 75.7747 1.64083ZM70.2245 8.20991C70.2245 8.5885 70.0783 8.95157 69.8182 9.21927C69.558 9.48697 69.2051 9.63736 68.8372 9.63736H61.8975V4.4969H68.8361C69.2043 4.4969 69.5574 4.64742 69.8178 4.91533C70.0782 5.18325 70.2245 5.54663 70.2245 5.92553V8.20991ZM104.639 4.4969H89.9271C89.559 4.4969 89.2061 4.64725 88.9457 4.91492C88.6854 5.18258 88.539 5.54566 88.5387 5.92435V13.3504C88.5387 13.7293 88.6849 14.0926 88.9453 14.3606C89.2057 14.6285 89.5588 14.779 89.9271 14.779H104.639C104.787 14.779 104.928 14.8391 105.032 14.946C105.136 15.053 105.195 15.1981 105.195 15.3495V17.0587C105.195 17.2103 105.136 17.3557 105.032 17.4629C104.928 17.5701 104.787 17.6304 104.639 17.6304H82.9884C82.2523 17.6304 81.5463 17.3294 81.0257 16.7938C80.5052 16.2582 80.2128 15.5318 80.2128 14.7743V4.4969C80.2128 3.73942 80.5052 3.01297 81.0257 2.47735C81.5463 1.94173 82.2523 1.64083 82.9884 1.64083H104.639C104.787 1.64083 104.928 1.70106 105.032 1.80827C105.136 1.91548 105.195 2.06089 105.195 2.21251V3.92639C105.195 4.07781 105.136 4.22292 105.032 4.32987C104.928 4.43683 104.787 4.4969 104.639 4.4969ZM22.2062 1.64083H0.555274C0.408319 1.64145 0.267589 1.70196 0.163891 1.8091C0.0601916 1.91625 0.00197081 2.0613 0.00197206 2.21251V3.92993C0.00197206 4.00485 0.0163133 4.07904 0.0441769 4.14825C0.0720405 4.21747 0.112881 4.28036 0.164366 4.33334C0.215851 4.38631 0.276973 4.42834 0.344242 4.45701C0.41151 4.48568 0.483609 4.50044 0.55642 4.50044H15.2676C15.6356 4.50075 15.9885 4.6514 16.2486 4.91929C16.5088 5.18717 16.6549 5.55037 16.6549 5.92906V6.786C16.6549 6.97346 16.619 7.15908 16.5493 7.33226C16.4796 7.50545 16.3774 7.66281 16.2486 7.79536C16.1197 7.92791 15.9668 8.03306 15.7985 8.10479C15.6302 8.17653 15.4498 8.21345 15.2676 8.21345H8.88345C8.73609 8.21345 8.59478 8.27368 8.49058 8.38089C8.38639 8.4881 8.32785 8.63351 8.32785 8.78514V10.4978C8.32785 10.6495 8.38639 10.7949 8.49058 10.9021C8.59478 11.0093 8.73609 11.0695 8.88345 11.0695H15.2676C15.4498 11.0695 15.6302 11.1064 15.7985 11.1782C15.9668 11.2499 16.1197 11.3551 16.2486 11.4876C16.3774 11.6202 16.4796 11.7775 16.5493 11.9507C16.619 12.1239 16.6549 12.3095 16.6549 12.497V13.3539C16.6528 13.7312 16.5057 14.0922 16.2458 14.3584C15.9859 14.6245 15.6343 14.774 15.2676 14.7743H0.55642C0.483222 14.7743 0.410747 14.7892 0.343178 14.8182C0.275609 14.8471 0.214282 14.8896 0.162737 14.943C0.111191 14.9965 0.0704472 15.06 0.0428546 15.1297C0.0152619 15.1995 0.00136712 15.2742 0.00197206 15.3495V17.0634C0.00197175 17.2148 0.0603502 17.36 0.164296 17.4672C0.268243 17.5744 0.409266 17.6348 0.55642 17.6351H22.2074C22.5722 17.6349 22.9334 17.5608 23.2703 17.4169C23.6072 17.273 23.9133 17.0622 24.171 16.7965C24.4286 16.5308 24.6329 16.2154 24.772 15.8684C24.9112 15.5214 24.9825 15.1496 24.9819 14.7743V11.9052C24.982 11.3552 24.7893 10.8237 24.4391 10.4081C24.089 9.9926 23.6048 9.72101 23.0757 9.64325L23.039 9.63736H23.0757C23.6048 9.5596 24.089 9.28801 24.4391 8.87248C24.7893 8.45695 24.982 7.92536 24.9819 7.37537V4.4969C24.9819 3.73942 24.6895 3.01297 24.1689 2.47735C23.6484 1.94173 22.9424 1.64083 22.2062 1.64083ZM33.409 1.64083H50.5212C50.7037 1.64067 50.8843 1.67751 51.0529 1.74924C51.2215 1.82096 51.3747 1.92617 51.5037 2.05885C51.6328 2.19152 51.7352 2.34906 51.805 2.52247C51.8749 2.69588 51.9108 2.88174 51.9108 3.06945V17.0646C51.9108 17.2162 51.8523 17.3616 51.7481 17.4688C51.6439 17.576 51.5026 17.6362 51.3552 17.6362H44.1382C43.9909 17.6362 43.8496 17.576 43.7454 17.4688C43.6412 17.3616 43.5826 17.2162 43.5826 17.0646V13.9232H35.3507L34.0104 17.2815C33.9682 17.3861 33.8969 17.4756 33.8053 17.5385C33.7138 17.6015 33.6061 17.6351 33.496 17.6351H26.3695C26.2784 17.6349 26.1887 17.6117 26.1084 17.5675C26.028 17.5233 25.9595 17.4594 25.9088 17.3815C25.858 17.3036 25.8267 17.214 25.8176 17.1207C25.8085 17.0274 25.8218 16.9333 25.8563 16.8465L31.355 3.05531C31.5227 2.63671 31.8074 2.2788 32.1731 2.02697C32.5388 1.77514 32.9689 1.64075 33.409 1.64083ZM39.1115 4.50162L36.4894 11.0707H43.5792V4.50162H39.1115Z" fill="white"/>
</svg>
