<svg width="132" height="46" viewBox="0 0 132 46" fill="none" xmlns="http://www.w3.org/2000/svg">
<path fill-rule="evenodd" clip-rule="evenodd" d="M24.2004 0H23.5918L23.0137 0.236467L14.1597 8.7788C13.7794 9.26651 13.9087 9.63599 14.5401 9.63599H18.4574C19.0964 9.63599 19.5984 10.1237 19.5984 10.737V17.0773C19.5984 17.6906 20.108 18.1783 20.7394 18.1783H27.1821C27.9428 18.1783 28.4524 17.6906 28.4524 17.0773V10.737C28.4524 10.1237 28.9544 9.63599 29.5858 9.63599H33.2521C33.8835 9.63599 34.0128 9.26651 33.6324 8.7788L24.7861 0.236467L24.2004 0ZM79.8493 7.56696L79.8492 7.56689L79.7809 7.55957C75.7342 7.55957 72.4482 10.6115 72.4482 14.5205C72.4482 18.5479 75.7342 21.718 79.7809 21.718L79.8493 21.7106V21.7105L81.2564 21.5701C84.5957 20.9124 87.1134 18.0379 87.1134 14.5205C87.1134 11.0991 84.5957 8.33541 81.2564 7.69991L79.8493 7.56696ZM79.7809 10.3676L79.8492 10.3823L79.8493 10.3824L81.3933 10.6927C82.8842 11.3134 83.9567 12.7765 83.9567 14.5205C83.9567 16.3457 82.8842 17.9049 81.3933 18.57L79.8492 18.8951V18.8952L79.7809 18.9099C77.5065 18.9099 75.7342 16.9591 75.7342 14.5205C75.7342 12.2002 77.5065 10.3676 79.7809 10.3676ZM60.5594 7.80347H57.783V10.3676H58.9164C59.0457 10.3676 59.0457 10.4933 59.0457 10.4933V21.4742H62.0807V15.9837H67.5193V21.4742H70.5543V10.4933L70.6837 10.3676H71.817V7.80347H69.1623C68.0214 7.80347 67.5193 8.29118 67.5193 9.39222V13.2939H62.0807V9.39222C62.0807 8.29118 61.571 7.80347 60.5594 7.80347ZM91.982 7.80347H87.7451V10.3676H89.0154V19.8854C89.0154 20.9864 89.5175 21.4742 90.5291 21.4742H93.7391H94.0053V18.7917H93.0773H92.1721C92.1068 18.7917 92.0745 18.7917 92.0585 18.7756C92.0428 18.7597 92.0428 18.7283 92.0428 18.6661V15.6142H93.3587H94.0053V13.1757H92.9024H92.0428V10.3676H93.8151H94.0053V7.80347H91.982ZM94.0053 7.80347H94.0662C96.8502 7.80347 98.4932 9.2666 98.4932 11.4687C98.4932 12.8062 97.8618 13.6634 97.2305 14.2767C98.3715 14.7644 99.1245 15.9837 99.1245 17.3212C99.1245 19.8854 97.1012 21.4742 94.1955 21.4742H94.1422H94.0053V18.7917H94.3172C95.3288 18.7917 95.9678 18.1784 95.9678 17.203C95.9678 16.2276 95.3288 15.6142 94.3172 15.6142H94.0357H94.0053V13.1757H94.0662C94.9561 13.1757 95.4582 12.5623 95.4582 11.7125C95.4582 10.8554 94.9561 10.3676 94.0662 10.3676H94.0357H94.0053V7.80347ZM106.221 7.80347H104.943L100.897 18.6661C100.846 18.7184 100.816 18.7489 100.781 18.7667C100.73 18.7917 100.667 18.7917 100.516 18.7917H99.8849V21.4742H101.787C102.798 21.4742 103.3 21.1047 103.551 20.2549L104.441 18.0528H105.772H106.457V15.496H106.267H105.194L106.206 12.688C106.206 12.3185 106.335 11.9564 106.457 11.7125V7.80347H106.221ZM106.457 7.80347H107.978L112.025 18.6661C112.076 18.7192 112.106 18.7498 112.142 18.7675C112.191 18.7917 112.253 18.7917 112.398 18.7917H112.907V21.4742H111.135C110.123 21.4742 109.621 21.1047 109.363 20.1293L108.48 18.0528H106.776H106.457V15.496H107.72L106.716 12.688C106.716 12.3185 106.586 11.9564 106.457 11.7125V7.80347ZM68.782 25.3759H57.783V27.94H59.0457V39.0465H62.0807V27.94H67.139C67.2683 27.94 67.2683 28.0657 67.2683 28.0657V37.4578C67.2683 38.5588 67.7704 39.0465 68.9113 39.0465H71.566V36.3567H70.5543C70.4878 36.3567 70.4555 36.3567 70.4398 36.3406C70.425 36.3254 70.425 36.2959 70.425 36.2385V26.9646C70.425 25.8636 69.7937 25.3759 68.782 25.3759ZM79.53 25.1321L79.5909 25.1395L79.5909 25.1393L81.0437 25.2723C84.4438 25.9078 86.8627 28.6715 86.8627 32.0929C86.8627 35.6103 84.4438 38.4848 81.0437 39.1425L79.5909 39.2829L79.5909 39.2831L79.53 39.2905C75.4834 39.2905 72.3191 36.113 72.3191 32.093C72.3191 28.184 75.4834 25.1321 79.53 25.1321ZM79.5909 36.4677L79.5909 36.4675L81.1958 36.1423C82.7095 35.4773 83.706 33.9181 83.706 32.0929C83.706 30.3489 82.7095 28.8858 81.1958 28.2651L79.5909 27.9547L79.5909 27.9549L79.53 27.9401C77.2481 27.9401 75.4834 29.7727 75.4834 32.093C75.4834 34.5316 77.2481 36.4824 79.53 36.4824L79.5909 36.4677ZM87.4941 25.3759H90.278C91.2897 25.3759 91.7917 25.8636 91.7917 26.9646V36.2385C91.7917 36.2959 91.7917 36.3254 91.8065 36.3406C91.8222 36.3567 91.8545 36.3567 91.9211 36.3567H95.5874V25.3759H98.6224V36.3567H102.289C102.355 36.3567 102.388 36.3567 102.403 36.3406C102.418 36.3254 102.418 36.2959 102.418 36.2385V26.9646C102.418 25.8636 102.92 25.3759 103.932 25.3759H106.716V27.94H105.575C105.445 27.94 105.445 28.0657 105.445 28.0657V37.4578C105.445 38.5588 104.943 39.0465 103.932 39.0465H90.3997C89.2664 39.0465 88.7567 38.5588 88.7567 37.4578V28.0657C88.7567 28.0657 88.7567 27.94 88.635 27.94H87.4941V25.3759ZM118.597 25.3759H109.112C108.1 25.3759 107.72 25.8636 107.72 26.839V29.1593H110.504V28.0657C110.504 27.94 110.504 27.94 110.633 27.94H112.398V39.0465H115.44V27.94H117.205C117.334 27.94 117.334 27.94 117.334 28.0657V29.1593H120.118V26.839C120.118 25.8636 119.738 25.3759 118.597 25.3759ZM124.036 25.3759H125.314H125.549V29.2849C125.42 29.5288 125.298 29.8909 125.298 30.2604L124.287 33.0684H125.352H125.549V35.6252H124.865H123.526L122.644 37.7016C122.393 38.6771 121.883 39.0465 120.871 39.0465H118.977V36.3567H119.609C119.762 36.3567 119.824 36.3567 119.875 36.3323C119.91 36.3154 119.939 36.2868 119.989 36.2385L124.036 25.3759ZM127.063 25.3759H125.55V29.2849C125.679 29.5288 125.801 29.8909 125.801 30.2604L126.812 33.0684H125.55V35.6252H125.869H127.573L128.455 37.7016C128.714 38.6771 129.216 39.0465 130.228 39.0465H132V36.3567H131.498C131.345 36.3567 131.283 36.3567 131.232 36.3323C131.197 36.3154 131.167 36.2868 131.118 36.2385L127.063 25.3759ZM38.295 13.619C38.4395 13.5747 38.6296 13.6634 38.8198 13.9072L47.4152 22.0801C47.9172 22.5678 47.9172 23.3067 47.4152 23.6688L38.8198 31.9673C38.6296 32.2112 38.4395 32.2703 38.295 32.1964C38.1504 32.1225 38.0592 31.9082 38.0592 31.5978V14.1511C38.0592 13.8481 38.1504 13.6634 38.295 13.619ZM9.73254 13.4343C9.89228 13.5082 9.99116 13.7225 9.99116 14.0328V31.8417C9.99116 32.152 9.89228 32.3368 9.73254 32.3959C9.58041 32.455 9.35982 32.3959 9.1012 32.2111L0.376523 23.6688C-0.125508 23.3067 -0.125508 22.5678 0.376523 22.0801L9.1012 13.6633C9.35982 13.4195 9.58041 13.3604 9.73254 13.4343ZM27.1819 27.4523H20.7392C20.1079 27.4523 19.5982 27.94 19.5982 28.5533V35.263C19.5982 35.9946 19.0962 36.4823 18.4573 36.4823H14.7909C14.1596 36.4823 13.9086 36.8444 14.4182 37.2139L23.0136 45.6306C23.2646 45.8745 23.5841 46.0001 23.8959 46.0001C24.2154 46.0001 24.5273 45.8745 24.7859 45.6306L33.3813 37.2139C33.8833 36.8444 33.6323 36.4823 33.0009 36.4823H29.5856C28.9543 36.4823 28.4522 35.9946 28.4522 35.263V28.5533C28.4522 27.94 27.9426 27.4523 27.1819 27.4523Z" fill="white"/>
</svg>
