<svg width="176" height="30" viewBox="0 0 176 30" fill="none" xmlns="http://www.w3.org/2000/svg">
<path fill-rule="evenodd" clip-rule="evenodd" d="M11.9606 0H0L8.20482 21.9151L8.19541 21.9401H8.21421L8.21427 21.9403L8.21427 21.9403H20.1749L20.1748 21.9403H20.1749L20.1749 21.9401H20.2001L26.2214 5.90283H14.2167L14.1936 5.96439L11.9606 0ZM71.1489 7.66012C69.8982 6.94641 68.5621 6.58801 67.1413 6.58801C65.1751 6.58801 63.4359 7.27632 61.9235 8.64976C60.1968 10.2294 59.3335 12.2023 59.3335 14.5718C59.3335 16.7826 60.096 18.6604 61.6242 20.2083C63.1523 21.7531 64.9955 22.527 67.1539 22.527C68.6218 22.527 69.9647 22.1749 71.1839 21.4739C72.4031 20.7729 73.3643 19.7991 74.0697 18.5558C74.7757 17.3123 75.1283 15.9737 75.1283 14.5432C75.1283 13.1222 74.779 11.7963 74.0764 10.572C73.3771 9.34762 72.3997 8.377 71.1489 7.66012ZM70.144 17.75C69.3594 18.578 68.3733 18.9903 67.1884 18.9903C66.0038 18.9903 65.027 18.5811 64.2551 17.7628C63.4832 16.9444 63.0987 15.8754 63.0987 14.5559C63.0987 13.2745 63.4895 12.2214 64.2708 11.3998C65.0523 10.5783 66.029 10.166 67.2045 10.166C68.4082 10.166 69.3944 10.572 70.1662 11.384C70.938 12.196 71.3256 13.2555 71.3256 14.5559C71.3223 15.8596 70.932 16.9222 70.144 17.75ZM101.448 6.58801C99.2137 6.58801 97.3577 7.35242 95.8772 8.8813C94.396 10.4102 93.6557 12.3292 93.6557 14.6448C93.6557 16.9031 94.3993 18.781 95.8832 20.2812C97.3705 21.7816 99.2923 22.5302 101.656 22.5302C103.178 22.5302 104.494 22.2574 105.601 21.715C106.706 21.1694 107.658 20.332 108.452 19.1996L105.269 17.6961C104.255 18.6889 103.042 19.187 101.627 19.187C100.446 19.187 99.475 18.8697 98.7126 18.2322C97.9502 17.5978 97.484 16.7382 97.3073 15.6598H109.448L109.46 14.9365C109.46 12.4275 108.717 10.4102 107.232 8.8813C105.748 7.35242 103.817 6.58801 101.448 6.58801ZM97.4746 12.6655C97.8998 11.7266 98.3633 11.0731 98.8611 10.702C99.6551 10.1057 100.581 9.8107 101.633 9.8107C102.604 9.8107 103.458 10.0739 104.192 10.6037C104.926 11.1334 105.421 11.8217 105.67 12.6686H97.4746V12.6655ZM135.049 15.9262L138.845 6.97815H142.676L136.268 22.1401H133.817L127.395 6.97815H131.245L135.049 15.9262ZM150.468 6.58801C148.235 6.58801 146.379 7.35242 144.898 8.8813C143.417 10.4102 142.676 12.3292 142.676 14.6448C142.676 16.9031 143.42 18.781 144.904 20.2812C146.392 21.7816 148.313 22.5302 150.677 22.5302C152.198 22.5302 153.515 22.2574 154.621 21.715C155.727 21.1694 156.679 20.332 157.473 19.1996L154.291 17.6961C153.276 18.6889 152.063 19.187 150.648 19.187C149.467 19.187 148.496 18.8697 147.734 18.2322C146.971 17.5978 146.504 16.7382 146.328 15.6598H158.468L158.481 14.9365C158.481 12.4275 157.737 10.4102 156.253 8.8813C154.77 7.35242 152.841 6.58801 150.468 6.58801ZM146.498 12.6655C146.924 11.7266 147.387 11.0731 147.885 10.702C148.679 10.1057 149.605 9.8107 150.658 9.8107C151.628 9.8107 152.482 10.0739 153.216 10.6037C153.95 11.1334 154.445 11.8217 154.694 12.6686H146.498V12.6655ZM172.021 7.66012C173.271 8.377 174.245 9.34762 174.947 10.5751C175.647 11.7995 175.997 13.1254 176 14.5432C176 15.9737 175.647 17.3123 174.941 18.5558C174.235 19.7991 173.274 20.7729 172.055 21.4739C170.836 22.1749 169.494 22.527 168.025 22.527C165.867 22.527 164.024 21.7531 162.495 20.2083C160.967 18.6604 160.205 16.7826 160.205 14.5718C160.205 12.2023 161.068 10.2294 162.795 8.64976C164.307 7.27632 166.046 6.58801 168.012 6.58801C169.434 6.58801 170.769 6.94641 172.021 7.66012ZM168.057 18.9903C169.241 18.9903 170.228 18.578 171.012 17.75C171.8 16.9222 172.191 15.8596 172.193 14.5527C172.193 13.2555 171.806 12.196 171.034 11.384C170.262 10.572 169.276 10.166 168.072 10.166C166.897 10.166 165.921 10.5783 165.139 11.3998C164.357 12.2214 163.966 13.2745 163.966 14.5559C163.966 15.8754 164.351 16.9444 165.123 17.7628C165.895 18.5811 166.872 18.9903 168.057 18.9903ZM84.4018 6.61987C80.2491 6.61987 76.8682 10.0234 76.8682 14.204V22.1338H80.5514V14.204C80.5514 12.0661 82.2778 10.3278 84.4018 10.3278C86.5252 10.3278 88.2523 12.0661 88.2523 14.204V22.1338H91.9354V14.204C91.9354 10.0202 88.5579 6.61987 84.4018 6.61987ZM44.3575 9.28429C45.7408 7.6571 47.7951 6.61987 50.0857 6.61987C54.2386 6.61987 57.6163 10.0202 57.6131 14.204V22.1338H53.9298V14.204C53.9298 12.0661 52.2031 10.3278 50.0795 10.3278C47.9558 10.3278 46.2291 12.0661 46.2291 14.204V22.1338H46.1598H42.549H42.4796V14.204C42.4796 12.0661 40.7529 10.3278 38.6293 10.3278C36.5056 10.3278 34.779 12.0661 34.779 14.204V22.1338H31.0956V14.204C31.0956 10.0234 34.4765 6.61987 38.6293 6.61987C40.9199 6.61987 42.9743 7.65393 44.3575 9.28429ZM122.533 9.94391V14.9175C122.533 17.0554 120.806 18.7936 118.683 18.7936C116.559 18.7936 114.832 17.0554 114.832 14.9175V6.98767H111.149V14.9175C111.149 19.0981 114.527 22.5016 118.683 22.5016C120.088 22.5016 121.405 22.1115 122.533 21.4326V22.4159C122.533 24.5538 120.806 26.2921 118.683 26.2921V30.0001C122.807 30.0001 126.166 26.6442 126.213 22.5016H126.216V14.9175V9.94391V6.98767H122.533V9.94391Z" fill="white"/>
</svg>
