<svg width="120" height="24" viewBox="0 0 120 24" fill="none" xmlns="http://www.w3.org/2000/svg">
<path d="M13.2602 6.30402L12.778 7.5359L12.0547 9.45828L8.80718 17.8383L5.97915 10.5342L4.84841 7.61161L4.36622 6.30402H0.0819722C0 6.22832 0 6.22832 0 6.30402L3.63571 15.7622L6.78681 23.9885H9.29178C9.69508 23.983 10.0875 23.863 10.4186 23.644C10.7498 23.4249 11.0047 23.1167 11.1506 22.7589L13.171 17.6066L17.5348 6.38202H13.2602V6.30402ZM35.6434 6.30402H29.8186C29.5644 6.30872 29.3219 6.40691 29.1421 6.57798C28.9623 6.74906 28.8591 6.97973 28.8542 7.22163V8.21952C28.8504 8.47215 28.8995 8.72297 28.9986 8.95734C29.0978 9.19171 29.2451 9.40492 29.4318 9.58453C29.6185 9.76415 29.841 9.90655 30.0863 10.0034C30.3315 10.1003 30.5946 10.1497 30.8601 10.1488H35.547C35.9752 10.1506 36.3853 10.3134 36.6879 10.6018C36.9905 10.8901 37.161 11.2806 37.1623 11.6881V12.5323H31.9185C31.1743 12.528 30.4366 12.6644 29.7482 12.9334C29.0598 13.2025 28.4343 13.599 27.9082 14.0998C27.3821 14.6007 26.9657 15.1959 26.6831 15.851C26.4006 16.5062 26.2576 17.2082 26.2624 17.9163V18.6045C26.2579 19.3124 26.4012 20.0142 26.6838 20.669C26.9665 21.3239 27.383 21.9189 27.9091 22.4195C28.4352 22.9201 29.0605 23.3163 29.7487 23.5853C30.437 23.8542 31.1745 23.9905 31.9185 23.9862H41.2127V11.6995C41.2295 10.9942 41.0974 10.2927 40.8243 9.63679C40.5512 8.98084 40.1426 8.38367 39.6226 7.88062C39.1027 7.37756 38.482 6.97884 37.7973 6.70804C37.1125 6.43723 36.3777 6.29985 35.6362 6.30402H35.6434ZM37.2588 20.1461H32.0005C31.571 20.1461 31.159 19.984 30.8549 19.6955C30.5507 19.407 30.3792 19.0155 30.3779 18.6068V17.9186C30.3792 17.5107 30.55 17.1199 30.8531 16.8315C31.1563 16.5431 31.567 16.3805 31.9957 16.3793H37.2467L37.2588 20.1461ZM61.0186 6.30402H57.7783C57.0331 6.29974 56.2944 6.43648 55.6052 6.70628C54.916 6.97608 54.29 7.37357 53.7637 7.87563C53.2374 8.37769 52.8212 8.97429 52.5394 9.63076C52.2576 10.2872 52.1158 10.9904 52.1222 11.6995V24H56.175V11.6995C56.1757 11.2919 56.346 10.901 56.6487 10.6126C56.9514 10.3241 57.3619 10.1615 57.7904 10.1602H59.9602C60.2263 10.1627 60.4901 10.1147 60.7364 10.0189C60.9827 9.92317 61.2065 9.78166 61.3946 9.60266C61.5827 9.42366 61.7314 9.21077 61.832 8.97643C61.9327 8.74208 61.9832 8.491 61.9806 8.23787V7.22851C61.9775 6.98464 61.8744 6.75155 61.6934 6.57888C61.5124 6.40621 61.2677 6.30759 61.0114 6.30402H61.0186ZM93.9883 6.30402H90.8276V23.9885H94.8683V7.22851C94.8758 7.11195 94.8586 6.99516 94.8177 6.88505C94.7768 6.77495 94.7131 6.67378 94.6304 6.58755C94.5476 6.50132 94.4475 6.43179 94.336 6.38308C94.2244 6.33438 94.1037 6.30749 93.9811 6.30402H93.9883ZM92.8479 8.93161e-05H91.7992C91.5558 -0.000606964 91.3212 0.0862471 91.1424 0.243236C90.9635 0.400226 90.8536 0.615744 90.8348 0.846578V2.92266C90.8397 3.16455 90.9429 3.39522 91.1227 3.5663C91.3025 3.73738 91.5449 3.83556 91.7992 3.84026H93.9811C94.1031 3.83675 94.2232 3.81008 94.3342 3.7618C94.4452 3.71353 94.545 3.64462 94.6277 3.55914C94.7103 3.47365 94.7742 3.37331 94.8155 3.26401C94.8568 3.15471 94.8748 3.03865 94.8683 2.92266V1.92247C94.8709 1.66934 94.8204 1.41826 94.7197 1.18391C94.6191 0.949574 94.4704 0.736676 94.2823 0.557676C94.0942 0.378677 93.8704 0.237168 93.6241 0.141427C93.3778 0.0456871 93.114 -0.0023625 92.8479 8.93161e-05ZM118.377 14.9111C117.847 14.3781 117.207 13.9534 116.499 13.6627C115.79 13.3721 115.026 13.2216 114.255 13.2205H110.788C110.365 13.2221 109.958 13.0729 109.645 12.8023C109.333 12.5318 109.138 12.1595 109.1 11.7592C109.104 11.3328 109.276 10.9234 109.582 10.6122C109.73 10.4682 109.906 10.3535 110.101 10.2748C110.295 10.196 110.504 10.1548 110.715 10.1534H116.449C116.715 10.1561 116.979 10.1083 117.225 10.0127C117.472 9.91704 117.696 9.77554 117.884 9.59648C118.072 9.41741 118.221 9.20439 118.321 8.96991C118.422 8.73543 118.472 8.48421 118.469 8.23099V7.22851C118.464 6.98662 118.361 6.75594 118.181 6.58486C118.001 6.41379 117.759 6.3156 117.505 6.3109H110.708C109.936 6.3125 109.173 6.4634 108.464 6.75443C107.755 7.04547 107.116 7.47056 106.585 8.00388C105.806 8.75502 105.279 9.70949 105.07 10.7462C104.862 11.783 104.981 12.8553 105.414 13.8272C105.847 14.7991 106.573 15.6268 107.501 16.2053C108.429 16.7838 109.517 17.0871 110.626 17.0767H114.182C114.601 17.087 115.002 17.2403 115.312 17.5086C115.622 17.7769 115.82 18.1422 115.87 18.538C115.872 18.9523 115.729 19.3556 115.465 19.685C115.308 19.8357 115.12 19.9542 114.912 20.0331C114.705 20.112 114.483 20.1497 114.26 20.1438H105.05V23.9105H114.344C115.826 23.8978 117.245 23.337 118.301 22.3468C119.356 21.3566 119.966 20.0145 120 18.6045C119.986 17.2191 119.404 15.8937 118.377 14.9111ZM77.7361 20.1438H76.7717C76.3437 20.1426 75.9336 19.9802 75.6309 19.6923C75.3283 19.4043 75.1577 19.014 75.1564 18.6068V10.1488H79.2719C79.5263 10.1447 79.7691 10.0466 79.949 9.87545C80.1289 9.70426 80.2319 9.47325 80.2363 9.23118V8.2264C80.2388 7.97327 80.1883 7.72219 80.0877 7.48785C79.9871 7.25351 79.8384 7.04061 79.6503 6.86161C79.4621 6.68261 79.2384 6.5411 78.9921 6.44536C78.7458 6.34962 78.4819 6.30157 78.2159 6.30402H75.1516V2.99836H71.1229V18.5976C71.1184 19.3055 71.2617 20.0073 71.5443 20.6621C71.827 21.317 72.2434 21.912 72.7695 22.4126C73.2956 22.9132 73.9209 23.3094 74.6092 23.5784C75.2974 23.8473 76.035 23.9836 76.779 23.9794H80.9813V20.1438H77.7361Z" fill="white"/>
</svg>
