<svg width="168" height="48" viewBox="0 0 168 48" fill="none" xmlns="http://www.w3.org/2000/svg">
<path fill-rule="evenodd" clip-rule="evenodd" d="M22.5507 36.6251C31.0084 34.8576 37.3815 27.4039 37.3815 18.5112C37.3815 8.30853 28.9924 0 18.6907 0C8.38909 0 0 8.30853 0 18.5112C0 27.4518 6.44194 34.9379 14.9677 36.6532L18.1691 47.5266C18.2125 47.7849 18.4299 47.9571 18.6907 48.0001H18.7776H18.8645C19.1253 47.9571 19.3427 47.7849 19.3861 47.5266L22.5507 36.6251ZM22.9492 35.2523C30.5059 33.3639 36.1209 26.5709 36.1209 18.5112C36.1209 8.99732 28.3404 1.24843 18.6907 1.24843C9.08456 1.24843 1.26054 8.99732 1.26054 18.5112C1.26054 26.618 6.94131 33.4432 14.5649 35.2849L11.084 23.462L7.08502 20.879C6.91115 20.7498 6.82422 20.5777 6.82422 20.3624V11.8817C6.82422 11.6664 6.91115 11.4942 7.12849 11.3651C7.30235 11.2359 7.56315 11.2359 7.73702 11.3651L15.1698 16.0144C15.3002 16.1005 15.3872 16.2297 15.4306 16.3588L18.7341 28.2835L22.0376 16.3588C22.0811 16.2297 22.168 16.1005 22.2984 16.0144L29.7312 11.3651C29.9051 11.279 30.1224 11.2359 30.3398 11.3651C30.5571 11.4512 30.644 11.6664 30.644 11.8817V20.3194C30.644 20.5346 30.5571 20.7068 30.3832 20.8359L26.3843 23.4189L22.9492 35.2523ZM21.7768 10.7622C21.7768 10.0734 21.3421 9.0833 20.6032 8.17926C19.3861 6.71558 18.6472 4.34787 18.6472 4.30482C18.6472 4.34787 17.9083 6.71558 16.6912 8.17926C15.9522 9.04025 15.5176 10.0304 15.5176 10.7622C15.5176 12.6133 16.9085 14.1201 18.6472 14.1201C20.3859 14.1201 21.7768 12.6133 21.7768 10.7622ZM49.4647 32.201H48.9431C48.9431 32.4593 48.9431 32.6315 48.8996 32.8037C48.8562 32.9328 48.7692 33.062 48.6823 33.148C48.5954 33.2341 48.465 33.2772 48.2911 33.3202C48.1172 33.3633 47.8564 33.3633 47.5956 33.3633C47.3348 33.3633 47.1175 33.3202 46.9436 33.2772C46.7698 33.2341 46.6394 33.148 46.5524 33.0189C46.4655 32.8898 46.3786 32.7176 46.3351 32.4593C46.2916 32.201 46.2916 31.8996 46.2916 31.4691C46.2916 31.0386 46.2916 30.7373 46.3351 30.479C46.3786 30.2637 46.4655 30.0485 46.5524 29.9193C46.6394 29.7472 46.7698 29.6611 46.9436 29.618C47.1175 29.575 47.3348 29.5319 47.5956 29.5319C47.9434 29.5319 48.2042 29.575 48.378 29.618C48.5519 29.6611 48.6823 29.7902 48.7258 29.9193C48.7692 30.0485 48.8127 30.2637 48.8562 30.5651H49.3778C49.3778 30.3068 49.3343 30.0485 49.2909 29.8763C49.2474 29.6611 49.1604 29.5319 49.03 29.4028C48.8997 29.2736 48.7258 29.1875 48.5084 29.1445C48.2476 29.1014 47.9434 29.0584 47.5956 29.0584C47.2044 29.0584 46.9002 29.0584 46.6828 29.1445C46.4655 29.1875 46.2482 29.3167 46.1178 29.4889C45.9874 29.6611 45.857 29.9193 45.8135 30.2207C45.77 30.522 45.7266 30.9525 45.7266 31.4261C45.7266 31.9427 45.77 32.3301 45.8135 32.6315C45.857 32.9328 45.9874 33.148 46.1178 33.3202C46.2482 33.4924 46.4655 33.5785 46.6828 33.6646C46.9002 33.7077 47.2044 33.7507 47.5956 33.7507C48.0738 33.7507 48.465 33.7077 48.7258 33.6216C48.9866 33.5355 49.2039 33.3633 49.2909 33.148C49.4212 32.9328 49.4647 32.6315 49.4647 32.201ZM50.3772 29.1452H54.1588V33.7514H53.6372V29.6187H50.8988V33.7514H50.3772V29.1452ZM55.8977 33.7514V29.1452H55.3761V33.7514H55.8977ZM59.4182 33.7514H57.0275V29.1452H59.2878C59.679 29.1452 59.9832 29.2313 60.2006 29.4035C60.3744 29.5757 60.5048 29.877 60.5048 30.2644V30.2645C60.5048 30.4797 60.5048 30.6088 60.4614 30.738C60.4179 30.8671 60.3744 30.9963 60.2875 31.0824C60.2006 31.1685 60.0702 31.2546 59.8963 31.2976C60.1136 31.3407 60.244 31.4268 60.3744 31.5129C60.4614 31.599 60.5483 31.7281 60.5918 31.8573C60.6352 31.9864 60.6352 32.1586 60.6352 32.3739C60.6352 32.8044 60.5483 33.1488 60.3744 33.364C60.1571 33.6653 59.8528 33.7514 59.4182 33.7514ZM57.5925 29.5756V31.1685H59.0704C59.2878 31.1685 59.5051 31.1254 59.6355 31.0824C59.7659 31.0393 59.8528 30.9532 59.8963 30.8241C59.9398 30.6949 59.9832 30.5227 59.9832 30.3075C59.9832 30.0061 59.9398 29.8339 59.8528 29.7478C59.7659 29.6617 59.5485 29.5756 59.2878 29.5756H57.5925ZM57.5925 31.599V33.2779H59.027C59.2443 33.2779 59.4182 33.2779 59.5486 33.2348C59.679 33.2348 59.7659 33.1918 59.8528 33.1057C59.9398 33.0627 59.9832 32.9766 60.0267 32.8474C60.0702 32.7183 60.0702 32.5891 60.0702 32.417V32.4169C60.0702 32.1586 60.0267 31.9864 59.9832 31.8573C59.9398 31.7281 59.8528 31.642 59.7224 31.599C59.592 31.5559 59.4182 31.5559 59.1574 31.5559L57.5925 31.599ZM65.46 29.1452H61.6784V33.7514H62.2V29.6187H64.9384V33.7514H65.46V29.1452ZM67.1558 33.7514H66.6342V29.1452H68.851C69.1118 29.1452 69.3726 29.1882 69.5465 29.2743C69.7203 29.3604 69.8507 29.5326 69.9377 29.7048C70.0246 29.92 70.0681 30.1353 70.0681 30.4366C70.0681 30.8241 70.0246 31.1254 69.8942 31.3407C69.8073 31.5559 69.6334 31.7281 69.4161 31.8142C69.1987 31.9003 68.8945 31.9434 68.5033 31.9434H67.1558V33.7514ZM67.1558 31.5129H68.4163C68.7206 31.5129 68.9379 31.4698 69.1118 31.4268C69.2857 31.3837 69.4161 31.2976 69.4595 31.1685C69.5465 31.0393 69.5899 30.8241 69.5899 30.5658C69.5899 30.2214 69.5465 29.9631 69.4161 29.7909C69.2857 29.6617 69.1118 29.5756 68.8075 29.5756H67.1558V31.5129ZM72.5453 29.1452L70.8501 33.7514H71.3717L71.7629 32.8044H74.1101L74.4578 33.7514H75.0229L73.2842 29.1452H72.5453ZM72.9365 29.5326L73.9797 32.3739H71.8933L72.9365 29.5326ZM76.4572 29.1452V33.3209H79.1956V29.1452H79.7172V33.3209H80.065V34.8277H79.5868V33.7514H75.9791V29.1452H76.4572ZM82.4127 31.9003H83.847H83.8905V33.7514H84.4121V29.1452H82.3257C81.8041 29.1452 81.4564 29.2313 81.1956 29.4465C80.9348 29.6618 80.8044 30.0061 80.8044 30.4797C80.8044 30.8671 80.9348 31.2115 81.1086 31.4268C81.2825 31.642 81.5433 31.8142 81.8476 31.8573L80.7609 33.7514H81.3694L82.4127 31.9003ZM83.847 29.6187V31.4698L82.4561 31.5129C82.1084 31.5129 81.8041 31.4268 81.6302 31.2976C81.4129 31.1685 81.326 30.9532 81.326 30.6519C81.326 30.3075 81.3694 30.0492 81.4998 29.877C81.6302 29.7048 81.891 29.6187 82.1953 29.6187H83.847ZM86.151 33.1051V33.7939C86.151 34.0092 86.1076 34.1814 86.0641 34.2675C86.0206 34.3536 85.8902 34.4397 85.6729 34.4397H85.586H85.499V34.1814C85.6294 34.1814 85.6729 34.1383 85.7164 34.0953C85.7598 34.0522 85.8033 33.9661 85.8033 33.837V33.7509H85.586V33.1051H86.151ZM90.6277 31.9003H92.0621V33.7514H92.5837V29.1452H90.4973C89.9757 29.1452 89.628 29.2313 89.3672 29.4465C89.1064 29.6618 88.976 30.0061 88.976 30.4797C88.976 30.8671 89.1064 31.2115 89.2802 31.4268C89.4541 31.642 89.7149 31.8142 90.0192 31.8573L88.9325 33.7514H89.5845L90.6277 31.9003ZM92.0621 29.6187V31.4698L90.6712 31.5129C90.3234 31.5129 90.0192 31.4268 89.8453 31.2976C89.628 31.1685 89.541 30.9532 89.541 30.6519C89.541 30.3075 89.5845 30.0492 89.7149 29.877C89.8453 29.7048 90.1061 29.6187 90.4104 29.6187H92.0621ZM94.3217 29.1452V31.1685H94.7999L96.7124 29.1452H97.4079L95.278 31.3837L97.6687 33.7514H96.9732L94.8433 31.599H94.3652V33.7514H93.8436V29.1452H94.3217ZM99.8856 29.1452L98.1904 33.7514H98.712L99.1032 32.8044H101.45L101.798 33.7514H102.363L100.625 29.1452H99.8856ZM100.233 29.5326L101.277 32.3739H99.1901L100.233 29.5326ZM105.059 33.7514V29.1452H107.927V29.6187H105.58V33.7514H105.059ZM110.188 29.1452L108.492 33.7514H109.014L109.405 32.8044H111.752L112.1 33.7514H112.665L110.926 29.1452H110.188ZM110.535 29.5326L111.578 32.3739H109.492L110.535 29.5326ZM114.056 33.7514H113.534V29.1452H115.751C116.012 29.1452 116.273 29.1882 116.447 29.2743C116.62 29.3604 116.751 29.5326 116.838 29.7048C116.925 29.92 116.968 30.1353 116.968 30.4366C116.968 30.8241 116.925 31.1254 116.794 31.3407C116.707 31.5559 116.534 31.7281 116.316 31.8142C116.099 31.9003 115.795 31.9434 115.403 31.9434H114.056V33.7514ZM114.056 31.5129H115.316C115.621 31.5129 115.838 31.4698 116.012 31.4268C116.186 31.3837 116.316 31.2976 116.36 31.1685C116.447 31.0393 116.49 30.8241 116.49 30.5658C116.49 30.2214 116.447 29.9631 116.316 29.7909C116.186 29.6617 116.012 29.5756 115.708 29.5756H114.056V31.5129ZM119.446 29.1452L117.751 33.7514H118.273L118.664 32.8044H121.011L121.359 33.7514H121.924L120.185 29.1452H119.446ZM119.837 29.5326L120.881 32.3739H118.794L119.837 29.5326ZM123.358 31.1685H126.096V29.1452H126.618V33.7514H126.096V31.642H123.358V33.7514H122.836V29.1452H123.358V31.1685ZM128.965 29.6187V33.7514H129.487V29.6187H131.008V29.1452H127.444V29.6187H128.965ZM132.399 33.3209H132.703C132.877 33.3209 132.964 33.2779 133.051 33.2348C133.119 33.201 133.161 33.1139 133.218 32.9946L133.218 32.9938C133.227 32.9753 133.236 32.9561 133.246 32.9362C133.253 32.9213 133.261 32.9061 133.268 32.8905L131.53 29.1452H132.095L133.529 32.3308L134.833 29.1452H135.355L133.703 33.0627C133.486 33.5362 133.225 33.7945 132.834 33.7945H132.399V33.3209ZM139.832 32.201H139.31C139.31 32.4593 139.31 32.6315 139.267 32.8037C139.223 32.9328 139.136 33.062 139.049 33.148C138.962 33.2341 138.832 33.2772 138.658 33.3202C138.484 33.3633 138.223 33.3633 137.963 33.3633C137.702 33.3633 137.485 33.3202 137.311 33.2772C137.137 33.2341 137.006 33.148 136.919 33.0189C136.833 32.8898 136.746 32.7176 136.702 32.4593C136.665 32.2369 136.66 31.9826 136.659 31.6415H139.18V31.211H136.659C136.661 30.9123 136.668 30.6823 136.702 30.479C136.746 30.2637 136.833 30.0485 136.919 29.9193C137.006 29.7472 137.137 29.6611 137.311 29.618C137.485 29.575 137.702 29.5319 137.963 29.5319C138.31 29.5319 138.571 29.575 138.745 29.618C138.919 29.6611 139.049 29.7902 139.093 29.9193C139.136 30.0485 139.18 30.2637 139.223 30.5651H139.745C139.745 30.3068 139.701 30.0485 139.658 29.8763C139.614 29.6611 139.527 29.5319 139.397 29.4028C139.267 29.2736 139.093 29.1875 138.875 29.1445C138.615 29.1014 138.31 29.0584 137.963 29.0584C137.571 29.0584 137.267 29.0584 137.05 29.1445C136.833 29.1875 136.615 29.3167 136.485 29.4889C136.354 29.6611 136.224 29.9193 136.181 30.2207C136.137 30.522 136.094 30.9525 136.094 31.4261C136.094 31.9427 136.137 32.3301 136.181 32.6315C136.224 32.9328 136.354 33.148 136.485 33.3202C136.615 33.4924 136.833 33.5785 137.05 33.6646C137.267 33.7077 137.571 33.7507 137.963 33.7507C138.441 33.7507 138.832 33.7077 139.093 33.6216C139.354 33.5355 139.571 33.3633 139.658 33.148C139.788 32.9328 139.832 32.6315 139.832 32.201ZM143.048 33.3209H143.352C143.526 33.3209 143.613 33.2779 143.7 33.2348C143.768 33.201 143.81 33.114 143.867 32.9946L143.867 32.9945C143.882 32.9621 143.899 32.9272 143.917 32.8905L142.179 29.1452H142.744L144.178 32.3308L145.482 29.1452H146.004L144.352 33.0627C144.135 33.5362 143.874 33.7945 143.483 33.7945H143.005V33.3209H143.048ZM150.481 32.201H149.959C149.959 32.4593 149.959 32.6315 149.916 32.8037C149.872 32.9328 149.785 33.062 149.698 33.148C149.612 33.2341 149.481 33.2772 149.307 33.3202C149.133 33.3633 148.873 33.3633 148.612 33.3633C148.351 33.3633 148.134 33.3202 147.96 33.2772C147.786 33.2341 147.656 33.148 147.569 33.0189C147.482 32.8898 147.395 32.7176 147.351 32.4593C147.308 32.201 147.308 31.8996 147.308 31.4691C147.308 31.0386 147.308 30.7373 147.351 30.479C147.395 30.2637 147.482 30.0485 147.569 29.9193C147.656 29.7472 147.786 29.6611 147.96 29.618C148.134 29.575 148.351 29.5319 148.612 29.5319C148.96 29.5319 149.22 29.575 149.394 29.618C149.568 29.6611 149.698 29.7902 149.742 29.9193C149.785 30.0485 149.829 30.2637 149.872 30.5651H150.394C150.394 30.3068 150.35 30.0485 150.307 29.8763C150.264 29.6611 150.177 29.5319 150.046 29.4028C149.916 29.2736 149.742 29.1875 149.525 29.1445C149.264 29.1014 148.96 29.0584 148.612 29.0584C148.221 29.0584 147.916 29.0584 147.699 29.1445C147.482 29.1875 147.264 29.3167 147.134 29.4889C147.004 29.6611 146.873 29.9193 146.83 30.2207C146.786 30.522 146.743 30.9525 146.743 31.4261C146.743 31.9427 146.786 32.3301 146.83 32.6315C146.873 32.9328 147.004 33.148 147.134 33.3202C147.264 33.4924 147.482 33.5785 147.699 33.6646C147.916 33.7077 148.221 33.7507 148.612 33.7507C149.09 33.7507 149.481 33.7077 149.742 33.6216C150.003 33.5355 150.22 33.3633 150.307 33.148C150.437 32.9328 150.481 32.6315 150.481 32.201ZM151.394 29.1452H155.176V33.7514H154.654V29.6187H151.916V33.7514H151.394V29.1452ZM156.871 33.7514V29.1452H156.349V33.7514H156.871ZM158.48 29.1452L159.784 31.1254L161.088 29.1452H161.696L160.175 31.3837L161.826 33.7945H161.174L159.74 31.6851L158.306 33.7945H157.654L159.305 31.3837L157.784 29.1452H158.48ZM164.696 3.44388V1.24836H165.565C165.782 1.24836 165.956 1.24836 166.043 1.29141C166.13 1.33446 166.217 1.42056 166.261 1.50666C166.304 1.59276 166.348 1.72191 166.348 1.85105C166.348 2.02325 166.304 2.1524 166.217 2.28155C166.13 2.4107 166 2.45375 165.826 2.4968C165.913 2.53984 166 2.62594 166.043 2.66899C166.061 2.70465 166.087 2.74031 166.117 2.78209C166.159 2.84118 166.21 2.91251 166.261 3.01339L166.521 3.44388H166.043L165.739 2.97034C165.652 2.79814 165.565 2.66899 165.522 2.62594C165.478 2.58289 165.435 2.53984 165.391 2.53984C165.373 2.53984 165.348 2.53246 165.318 2.52381C165.276 2.51157 165.225 2.4968 165.174 2.4968H165.087V3.44388H164.696ZM165.087 2.19545H165.391C165.565 2.19545 165.695 2.19545 165.739 2.1524C165.782 2.1524 165.826 2.10935 165.869 2.0663C165.913 2.02325 165.913 1.9802 165.913 1.8941C165.913 1.808 165.913 1.76496 165.869 1.72191C165.826 1.67886 165.782 1.63581 165.695 1.63581H165.391H165.087V2.19545ZM163.218 2.36772C163.218 3.6592 164.305 4.73543 165.609 4.73543C166.913 4.73543 168 3.6592 168 2.36772C168 1.07623 166.913 0 165.609 0C164.305 0 163.218 1.07623 163.218 2.36772ZM163.653 2.41077C163.653 1.33453 164.522 0.473543 165.609 0.473543C166.652 0.473543 167.565 1.33453 167.565 2.41077C167.565 3.487 166.696 4.34799 165.609 4.34799C164.522 4.34799 163.653 3.487 163.653 2.41077ZM158.306 4.95056V12.4412H145.962V4.95056H142.311V24.3658H145.962V15.756H158.306V24.3658H161.958V4.95056H158.306ZM62.6356 4.95056V8.30842H49.3783V12.8717H62.114V16.2295H49.3783V21.008H62.6356V24.3658H45.7705V4.95056H62.6356ZM91.6707 4.95056H88.0195V24.3658H91.6707V4.95056ZM136.181 5.38113C137.833 5.89773 138.92 6.97396 139.398 8.52374C139.702 9.51388 139.833 11.5372 139.876 14.6798C139.876 17.7794 139.746 19.7596 139.441 20.7067C138.963 22.2565 137.877 23.2897 136.225 23.8493C134.573 24.409 132.356 24.6242 128.705 24.6242C124.663 24.6242 123.011 24.3229 121.533 23.8493C119.838 23.2897 118.751 22.2565 118.317 20.7067C118.012 19.6735 117.882 17.6933 117.882 14.6368C117.882 11.4941 118.012 9.51388 118.317 8.56679C118.751 7.01701 119.838 5.94078 121.533 5.38113C123.054 4.90759 124.706 4.60625 128.705 4.60625C132.356 4.60625 134.53 4.82149 136.181 5.38113ZM135.182 20.3623C135.573 20.0179 136.181 18.8986 136.181 14.5937C136.181 10.2888 135.573 9.12643 135.138 8.86814C134.443 8.26544 132.4 8.00715 128.575 8.00715C124.228 8.00715 122.967 8.35154 122.359 8.86814C122.011 9.16948 121.403 10.3318 121.403 14.6368C121.403 18.8986 122.055 20.061 122.402 20.3623C123.011 20.8789 124.315 21.2233 128.618 21.2233C132.443 21.2233 134.486 20.965 135.182 20.3623ZM83.066 6.54339C82.0662 5.46716 80.6753 4.95056 78.9366 4.95056H65.4619V24.3658H69.0262V17.6501H78.8497C80.6318 17.6501 82.0228 17.1335 83.0225 16.0573C84.0222 15.0241 84.5438 13.3882 84.5438 11.3219C84.5873 9.21245 84.0657 7.61963 83.066 6.54339ZM69.0697 8.30842H78.8497C79.5452 8.30842 80.0668 8.52366 80.4145 8.99721C80.8057 9.47075 80.9796 10.2456 80.9796 11.3219C80.9796 12.3981 80.7622 13.173 80.371 13.6465C79.9798 14.077 79.5017 14.2923 78.8497 14.2923H69.0262L69.0697 8.30842ZM114.84 4.95056V21.1802L116.883 21.2232V24.4089H93.2803V21.2232H94.7581V14.3784C94.8016 10.3317 95.4536 7.70572 96.7141 6.37119C97.627 5.42411 99.2787 4.95056 101.669 4.95056H114.84ZM99.1483 9.4277C98.6702 10.2887 98.4094 11.9246 98.4094 14.3784V14.5936V20.9219H111.276V8.26537H101.756C100.452 8.26537 99.583 8.65281 99.1483 9.4277Z" fill="white"/>
</svg>
