<svg width="132" height="28" viewBox="0 0 132 28" fill="none" xmlns="http://www.w3.org/2000/svg">
<path fill-rule="evenodd" clip-rule="evenodd" d="M49.8689 13.7764C51.7008 13.7764 53.3292 12.8818 54.1434 11.4505L58.6214 13.2396C57.0948 15.8339 54.0416 17.5336 49.8689 17.5336C43.6608 17.5336 39.9969 13.7764 39.9969 8.76679C39.9969 3.75719 43.559 0 49.8689 0C54.0416 0 57.0948 1.69968 58.6214 4.38339L54.1434 6.08308C53.431 4.65176 51.7008 3.75719 49.8689 3.75719C46.6122 3.75719 44.882 6.17253 44.882 8.76679C44.882 11.361 46.5104 13.7764 49.8689 13.7764ZM33.8905 8.67733C33.8905 6.08308 32.2621 3.66774 28.9036 3.66774C25.5451 3.66774 23.9167 6.08308 23.9167 8.67733C23.9167 11.2716 25.6469 13.6869 28.9036 13.6869C32.1604 13.6869 33.8905 11.2716 33.8905 8.67733ZM19.0316 8.76679C19.0316 3.75719 22.5937 0 28.9036 0C35.1118 0 38.7756 3.75719 38.7756 8.76679C38.7756 13.7764 35.1118 17.5336 28.9036 17.5336C22.6954 17.5336 19.0316 13.7764 19.0316 8.76679ZM10.8897 10.0192H4.78335V14.0448H9.97379C12.6199 14.0448 13.3323 13.1502 13.3323 12.0767C13.3323 10.6454 12.7217 10.0192 10.8897 10.0192ZM10.0756 3.39937H4.68157V6.97765H10.0756C11.6022 6.97765 12.6199 6.44091 12.6199 5.18851C12.6199 3.75719 11.7039 3.39937 10.0756 3.39937ZM10.2791 17.1757H0V0.178914H10.8897C14.9607 0.178914 17.6068 1.34186 17.6068 4.56231C17.6068 6.70928 16.0802 7.87222 13.4341 8.40896V8.49842C16.182 8.58787 18.3192 9.84027 18.3192 12.3451C18.3192 15.8339 15.266 17.1757 10.2791 17.1757ZM89.357 8.67733C89.357 6.08308 87.7286 3.66774 84.3701 3.66774C81.1133 3.66774 79.3832 6.08308 79.3832 8.67733C79.3832 11.2716 81.0116 13.6869 84.3701 13.6869C87.7286 13.6869 89.357 11.2716 89.357 8.67733ZM74.4981 8.76679C74.4981 3.75719 78.0601 0 84.3701 0C90.68 0 94.2421 3.75719 94.2421 8.76679C94.2421 13.7764 90.68 17.5336 84.3701 17.5336C78.1619 17.5336 74.4981 13.7764 74.4981 8.76679ZM64.4225 3.48882H59.2321L59.3338 0.178914H74.5998V3.48882H69.4094V17.1757H64.4225V3.48882ZM115.513 17.2652L105.641 8.76679L115.614 0.268371H109.508L100.552 7.96167V0.268371H95.5651V17.2652H100.45V9.5719L109.406 17.2652H115.513ZM115.818 3.57832L121.721 8.67737L115.818 13.7764L109.915 8.67737L115.818 3.57832ZM122.128 0.178955H116.022L125.894 8.67737L116.022 17.1758H122.128L132 8.67737L122.128 0.178955ZM83.4541 19.4121H89.1534V20.8434H85.1842V23.0798H86.7108C88.7463 23.0798 89.9676 23.9744 89.9676 25.4952C89.9676 27.1054 88.7463 28 86.7108 28H83.4541V19.4121ZM85.1842 24.2428V26.7476H86.5073C87.7286 26.7476 88.3392 26.2108 88.3392 25.4952C88.3392 24.7795 87.7286 24.2428 86.5073 24.2428H85.1842ZM96.2776 19.4121H94.751L90.273 28H92.1049L93.1226 25.9425H97.6006L98.6184 28H100.552L96.2776 19.4121ZM97.0918 24.869H93.7333L95.4634 21.3802L97.0918 24.869ZM107.982 24.3322H103.096V28H101.366V19.4121H103.096V22.9009H107.982V19.4121H109.712V28H107.982V24.3322ZM113.477 19.4121H111.849V28H113.579V23.6166L117.548 28H120.194L115.92 23.4377L119.889 19.4121H117.345L113.477 23.4377V19.4121Z" fill="white"/>
</svg>
