<svg width="160" height="37" viewBox="0 0 160 37" fill="none" xmlns="http://www.w3.org/2000/svg">
<path fill-rule="evenodd" clip-rule="evenodd" d="M18.1014 34.6814L18.0739 34.6851L18.0518 34.6693L18.1014 34.6814ZM18.0739 34.6851C16.4385 34.9066 14.7887 35.0109 13.1378 34.997H11.8969C2.85336 34.997 2.85701 34.0534 2.88454 26.9378C2.88613 26.5255 2.88781 26.0925 2.88781 25.6378V10.3546C2.88781 2.19718 3.54549 1.43241 11.8969 1.43241H12.964C24.1323 1.43241 34.6056 3.229 34.6056 18.8156C34.6056 23.8048 33.4764 28.2841 30.7464 31.6345C35.9086 28.539 37.2239 24.6424 37.2239 18.5728C37.2239 6.27591 33.3771 0 12.9889 0H12.0209C-0.0385885 0 -0.0347978 0.799687 0.00410037 9.00622C0.00642885 9.49747 0.00888314 10.0153 0.00888314 10.561V25.6985C0.00888314 30.9304 0.170202 33.5403 1.63448 34.8392C3.09876 36.1381 5.24555 36.4173 11.4625 36.4173H13.8699C15.9476 36.448 18.024 36.2977 20.0745 35.9681C19.3848 35.5754 18.717 35.1472 18.0739 34.6851ZM146.486 22.0931H160V19.7867H149.192V14.5668H158.498V12.1512H149.192V7.81751H159.603V5.38969H146.486V22.0931ZM124.994 5.42611V22.0931H127.476V9.15281H127.612L133.717 17.5045H134.598L140.617 9.15281H140.803V22.0931H143.446V5.42611H140.468L134.263 14.0327L127.997 5.42611H124.994ZM121.395 5.42611H118.789V22.0931H121.395V5.42611ZM100.759 7.73254H107.298V22.0931H109.941V7.73254H116.469V5.42611H100.759V7.73254ZM96.4775 5.42611V18.1236L85.7809 5.42611H83.2246V22.0931H85.8305V9.43201L96.5024 22.0931H98.9842V5.42611H96.4775ZM66.9686 22.0931H80.4697V19.7867H69.6614V14.5668H78.9682V12.1512H69.6614V7.81751H80.0726V5.38969H66.9686V22.0931ZM52.4375 7.79323H57.6617C58.2533 7.75762 58.8457 7.84768 59.3984 8.05722C59.951 8.26676 60.4508 8.59082 60.8633 9.00714C61.469 9.67479 61.7928 10.5426 61.7691 11.435C61.7812 12.3655 61.4358 13.2666 60.8012 13.9599C60.4175 14.3388 59.9556 14.6334 59.4463 14.8239C58.9371 15.0144 58.3921 15.0964 57.8478 15.0645H52.4375V7.79323ZM64.4991 11.435C64.4914 10.6404 64.3217 9.85543 64 9.12589C63.6782 8.39634 63.2109 7.73693 62.6254 7.18628C61.2967 6.00106 59.5455 5.37338 57.7486 5.43825H49.6826V22.0931H52.3754V17.456H58.1333L60.9377 22.0931H63.9159L60.6771 16.934C61.6858 16.5412 62.5746 15.9017 63.2582 15.0767C64.0372 14.017 64.4463 12.74 64.4247 11.435H64.4991ZM154.751 27.5071H156.935V32.2899H157.816V27.5071H159.988V26.7424H154.751V27.5071ZM148.472 26.7424V30.9668L144.911 26.7424H144.054V32.2899H144.923V28.0777L148.484 32.3021H149.328V26.7424H148.472ZM134.164 32.2899H138.669V31.5009H135.07V29.765H138.172V28.976H135.07V27.5435H138.545V26.7424H134.177L134.164 32.2899ZM122.338 26.7424V32.2899H123.17V27.9806L125.242 30.7118H125.54L127.55 27.932V32.2414H128.431V26.7424H127.438L125.391 29.6072L123.306 26.7424H122.338ZM114.893 29.9714H113.081V27.5435H114.744C114.939 27.5272 115.135 27.5561 115.316 27.6278C115.497 27.6995 115.658 27.812 115.786 27.9563C115.992 28.1838 116.102 28.4783 116.097 28.7817C116.086 29.0844 115.972 29.3749 115.774 29.6072C115.653 29.7354 115.504 29.8364 115.339 29.9035C115.175 29.9705 114.997 30.002 114.818 29.9956L114.893 29.9714ZM116.978 28.7817C116.985 28.3132 116.822 27.8572 116.518 27.495C116.301 27.2561 116.033 27.0669 115.733 26.941C115.433 26.8151 115.108 26.7556 114.781 26.7666H112.175V32.3142H113.081V30.7118H114.831C115.124 30.7229 115.416 30.677 115.691 30.577C115.965 30.477 116.217 30.3248 116.432 30.1292C116.626 29.9473 116.78 29.7286 116.884 29.4865C116.989 29.2444 117.042 28.9839 117.04 28.721L116.978 28.7817ZM101.59 29.4979C101.586 28.9593 101.79 28.4391 102.161 28.0412C102.363 27.8341 102.605 27.6692 102.874 27.5565C103.143 27.4438 103.432 27.3857 103.725 27.3857C104.017 27.3857 104.306 27.4438 104.575 27.5565C104.844 27.6692 105.086 27.8341 105.288 28.0412C105.648 28.4439 105.843 28.963 105.834 29.4979C105.843 30.0526 105.629 30.5885 105.239 30.991C104.837 31.3751 104.298 31.5902 103.737 31.5902C103.176 31.5902 102.637 31.3751 102.235 30.991C101.828 30.5956 101.596 30.0592 101.59 29.4979ZM100.697 29.4979C100.695 29.8832 100.773 30.2648 100.927 30.6196C101.08 30.9744 101.306 31.2949 101.59 31.5616C102.16 32.0804 102.909 32.3688 103.687 32.3688C104.466 32.3688 105.215 32.0804 105.785 31.5616C106.074 31.2967 106.305 30.9773 106.465 30.6227C106.625 30.2681 106.71 29.8855 106.715 29.4979C106.718 28.8095 106.462 28.1441 105.995 27.6285C105.72 27.3235 105.384 27.0765 105.009 26.9025C104.633 26.7285 104.224 26.6312 103.809 26.6164C103.393 26.6017 102.979 26.6698 102.591 26.8167C102.203 26.9635 101.85 27.1861 101.553 27.4707C101.279 27.7358 101.063 28.0517 100.916 28.3998C100.769 28.7479 100.694 29.1213 100.697 29.4979ZM96.1302 31.5252H92.5936V26.7424H91.7001V32.2899H96.1302V31.5252ZM81.6239 32.2899H86.1284V31.5009H82.4801V29.765H85.5824V28.976H82.4801V27.5435H85.9547V26.7424H81.6115L81.6239 32.2899ZM73.8434 32.2899L76.1763 26.7424H75.2456L73.3222 31.4766H73.2229L71.3119 26.7424H70.3192L72.6521 32.2899H73.8434ZM60.4911 32.2899H64.9832V31.5009H61.3846V29.765H64.4868V28.976H61.3846V27.5435H64.8591V26.7424H60.4787L60.4911 32.2899ZM51.9536 27.5314C52.2425 27.5136 52.5319 27.5551 52.8034 27.6534C53.0748 27.7517 53.3222 27.9045 53.5296 28.1019C53.8889 28.4801 54.0808 28.9819 54.0632 29.4979C54.0741 29.7649 54.0303 30.0313 53.9344 30.2815C53.8385 30.5317 53.6924 30.7605 53.5047 30.9546C53.295 31.1438 53.0485 31.2897 52.7798 31.3836C52.5112 31.4774 52.226 31.5173 51.9412 31.5009H50.601V27.5314H51.9536ZM49.7324 26.7424V32.2899H51.9908C52.7751 32.3191 53.5403 32.0493 54.1252 31.5373C54.6465 31.0096 54.945 30.3089 54.9611 29.5753C54.9772 28.8416 54.7097 28.129 54.2121 27.58C53.9244 27.296 53.5795 27.0737 53.1992 26.9274C52.8189 26.7811 52.4116 26.714 52.0032 26.7302L49.7324 26.7424ZM26.3411 7.96331C30.6843 10.6096 32.0865 13.7415 31.9873 19.107V19.1191C31.9004 27.0581 29.2821 31.2461 25.6958 33.4554C25.2615 33.0912 24.8148 32.6664 24.3308 32.1808C28.3266 29.8137 29.7784 25.4193 29.7784 18.8885C29.7784 14.8219 28.5872 9.9784 26.3411 7.96331ZM19.3298 27.7379C24.7898 35.8711 29.3688 37 29.3688 37C26.3287 36.7623 23.3747 35.8973 20.7011 34.462C18.0275 33.0266 15.695 31.0535 13.8574 28.6726C7.77598 20.9919 4.06694 18.4441 3.72821 18.2114C3.71789 18.2043 3.7107 18.1994 3.70667 18.1965H4.12858C5.38664 18.12 6.63374 17.9207 7.85132 17.6017C9.30526 17.1458 10.5925 16.2865 11.5565 15.1283C12.5205 13.97 13.1198 12.5628 13.2815 11.0776C13.4432 9.59239 13.1603 8.09324 12.4672 6.76239C11.7742 5.43153 10.7008 4.3263 9.37765 3.58107C10.4067 3.47347 11.4474 3.5652 12.4403 3.85103C13.4331 4.13686 14.3587 4.61119 15.1641 5.24695C15.9696 5.8827 16.6392 6.66742 17.1346 7.5563C17.63 8.44519 17.9417 9.42083 18.0516 10.4275C18.1616 11.4342 18.0679 12.4522 17.7757 13.4235C17.4835 14.3947 16.9986 15.3002 16.3487 16.0881C15.6988 16.876 14.8966 17.531 13.988 18.0157C13.0793 18.5003 12.082 18.8051 11.0529 18.9127H10.6682H8.65792C11.7354 19.9203 15.7808 22.2753 19.3298 27.7379Z" fill="white"/>
</svg>
