<svg width="92" height="67" viewBox="0 0 92 67" fill="none" xmlns="http://www.w3.org/2000/svg">
<path fill-rule="evenodd" clip-rule="evenodd" d="M22.9535 0H43.3859V1.14285H22.9535V0ZM47.8585 25.0019H68.291V26.1447H47.8585V25.0019ZM90.0397 0H69.6071V1.14285H90.0397V0ZM44.7514 2.24049H45.8991V23.9294H44.7514V2.24049ZM47.7277 27.1264H46.5801V48.8153H47.7277V27.1264ZM68.3723 27.1264H69.52V48.8153H68.3723V27.1264ZM91.1886 2.66192L70.7184 23.038L71.5297 23.8455L92 3.46942L91.1886 2.66192ZM28.7363 47.0074C30.5856 48.1105 32.7011 48.6932 34.8571 48.6934C37.2087 48.6991 39.509 48.01 41.4668 46.7134C43.4247 45.4168 44.9519 43.5709 45.8551 41.4097L44.7952 40.9691C43.8379 43.2581 42.1133 45.1463 39.9149 46.3122C37.7166 47.4781 35.1802 47.8497 32.7376 47.3638C30.2949 46.8779 28.0969 45.5645 26.5175 43.6472C24.9381 41.7299 24.075 39.327 24.075 36.8476C24.075 34.3681 24.9381 31.9652 26.5175 30.0479C28.0969 28.1306 30.2949 26.8172 32.7376 26.3313C35.1802 25.8455 37.7166 26.2171 39.9149 27.3829C42.1133 28.5488 43.8379 30.437 44.7952 32.726L45.8551 32.2884C45.0275 30.3067 43.675 28.5859 41.9419 27.3094C40.2088 26.0329 38.16 25.2487 36.0143 25.0403C33.8684 24.832 31.7061 25.2073 29.7578 26.1264C27.8096 27.0454 26.1484 28.4736 24.9517 30.2587C23.7551 32.0438 23.0676 34.1187 22.9627 36.2622C22.8579 38.4057 23.3395 40.5374 24.3563 42.4298C25.3731 44.3221 26.8869 45.9043 28.7363 47.0074ZM11.9176 23.7877C9.56128 23.7934 7.25649 23.1019 5.29574 21.8013C3.33499 20.5005 1.80674 18.6492 0.905028 16.4823C0.00330415 14.3155 -0.231219 11.9307 0.231227 9.63092C0.693673 7.3311 1.83223 5.21993 3.50235 3.56544C4.88207 2.18103 6.58431 1.15774 8.45753 0.586678C10.3307 0.0156151 12.3167 -0.0854909 14.2386 0.292364C16.1605 0.670218 17.9588 1.5153 19.4732 2.75237C20.9876 3.98943 22.1712 5.58008 22.9186 7.38266L21.847 7.82612C20.8896 5.53709 19.1651 3.64897 16.9667 2.48308C14.7683 1.31719 12.232 0.945561 9.78934 1.43144C7.3467 1.91731 5.14867 3.23067 3.56928 5.14802C1.98991 7.06536 1.12677 9.46819 1.12677 11.9477C1.12677 14.4271 1.98991 16.83 3.56928 18.7473C5.14867 20.6647 7.3467 21.978 9.78934 22.4639C12.232 22.9498 14.7683 22.5781 16.9667 21.4122C19.1651 20.2464 20.8896 18.3583 21.847 16.0693L22.9069 16.5098C22.0034 18.6685 20.4772 20.5122 18.5211 21.8077C16.5651 23.1031 14.267 23.7922 11.9176 23.7877ZM51.0055 21.8053C52.9616 23.1017 55.2601 23.7917 57.6102 23.7877C59.1743 23.7871 60.7227 23.4776 62.1656 22.8771C63.6087 22.2766 64.9176 21.3969 66.0167 20.2893C67.2607 19.05 68.2132 17.5515 68.8055 15.9019C69.3979 14.2521 69.6152 12.4921 69.4421 10.7487C69.2689 9.00527 68.7095 7.32177 67.8042 5.81941C66.8989 4.31703 65.6701 3.0332 64.2063 2.06035C62.7426 1.0875 61.0803 0.44984 59.3393 0.193299C57.5983 -0.0632415 55.8217 0.067717 54.1376 0.576744C52.4535 1.08577 50.9037 1.9602 49.5999 3.13706C48.2962 4.31391 47.2708 5.76392 46.5976 7.38265L47.6808 7.82029C48.6382 5.53128 50.3627 3.64316 52.5611 2.47727C54.7595 1.31137 57.2958 0.939747 59.7385 1.42563C62.1811 1.91151 64.3791 3.22487 65.9585 5.14221C67.5379 7.05956 68.401 9.46244 68.401 11.9419C68.401 14.4214 67.5379 16.8242 65.9585 18.7415C64.3791 20.6588 62.1811 21.9722 59.7385 22.4581C57.2958 22.944 54.7595 22.5724 52.5611 21.4065C50.3627 20.2406 48.6382 18.3524 47.6808 16.0634L46.6209 16.504C47.5235 18.6639 49.0494 20.5087 51.0055 21.8053ZM18.8158 54.7715H10.8926V55.7049H14.3169V63.632H15.3943V55.7049H18.8158V54.7715ZM68.4133 54.7715H69.491V63.632H68.4133V54.7715ZM79.3296 54.7715H71.4065V55.7049H74.8279V63.632H75.9053V55.7049H79.3296V54.7715ZM81.2432 54.7715H82.3207V63.632H81.2432V54.7715ZM50.9741 63.632V54.8237H49.8995L44.4748 61.8669V54.8237H43.345V63.632H44.4195L49.8588 56.6005V63.632H50.9741ZM46.5801 51.2586H47.7074V52.3811H46.5801V51.2586ZM69.4996 51.2586H68.3723V52.3811H69.4996V51.2586ZM81.2165 51.2586H82.3439V52.3811H81.2165V51.2586ZM65.1316 57.8263L66.1332 57.4119C65.722 56.472 64.9982 55.7018 64.0834 55.2308C63.1688 54.76 62.119 54.6169 61.1108 54.826C60.1026 55.035 59.1975 55.5834 58.5478 56.3787C57.898 57.174 57.5433 58.1678 57.5433 59.1929C57.5433 60.218 57.898 61.2119 58.5478 62.0072C59.1975 62.8025 60.1026 63.3508 61.1108 63.5599C62.119 63.7689 63.1688 63.6259 64.0834 63.155C64.9982 62.684 65.722 61.9139 66.1332 60.974L65.1316 60.5566C64.8167 61.2654 64.2667 61.8451 63.5736 62.1982C62.8805 62.5514 62.0865 62.6568 61.3247 62.4966C60.5629 62.3364 59.8795 61.9205 59.3892 61.3185C58.8987 60.7166 58.6311 59.965 58.6311 59.19C58.6311 58.415 58.8987 57.6635 59.3892 57.0615C59.8795 56.4595 60.5629 56.0435 61.3247 55.8834C62.0865 55.7232 62.8805 55.8286 63.5736 56.1818C64.2667 56.535 64.8167 57.1146 65.1316 57.8235V57.8263ZM9.75711 57.5076L8.84572 57.8844C8.52242 57.1542 7.95663 56.5569 7.24336 56.1926C6.53009 55.8284 5.71267 55.7193 4.92821 55.8838C4.14375 56.0482 3.43996 56.4762 2.93487 57.0958C2.42979 57.7156 2.15413 58.4893 2.15413 59.2873C2.15413 60.0852 2.42979 60.8589 2.93487 61.4786C3.43996 62.0983 4.14375 62.5262 4.92821 62.6907C5.71267 62.8551 6.53009 62.7461 7.24336 62.3819C7.95663 62.0176 8.52242 61.4202 8.84572 60.6901L9.75711 61.0697C9.34596 62.0096 8.62211 62.7798 7.70736 63.2508C6.79263 63.7217 5.74287 63.8647 4.73466 63.6556C3.72646 63.4466 2.82136 62.8982 2.17163 62.1029C1.52191 61.3076 1.16721 60.3138 1.16721 59.2887C1.16721 58.2636 1.52191 57.2697 2.17163 56.4744C2.82136 55.6791 3.72646 55.1308 4.73466 54.9217C5.74287 54.7127 6.79263 54.8557 7.70736 55.3266C8.62211 55.7976 9.34596 56.5677 9.75711 57.5076ZM36.447 55.896C37.1203 55.896 37.7784 56.0948 38.3381 56.4671C38.8979 56.8394 39.3342 57.3686 39.5918 57.9877C39.8495 58.6068 39.9169 59.2881 39.7856 59.9453C39.6542 60.6026 39.33 61.2063 38.854 61.6801C38.378 62.154 37.7714 62.4767 37.1111 62.6075C36.4508 62.7382 35.7664 62.6711 35.1444 62.4147C34.5224 62.1582 33.9908 61.7239 33.6167 61.1668C33.2427 60.6095 33.0431 59.9544 33.0431 59.2843C33.0439 58.3859 33.4027 57.5245 34.0409 56.8893C34.6791 56.254 35.5445 55.8968 36.447 55.896ZM36.447 54.7541C35.5469 54.7541 34.667 55.0198 33.9185 55.5176C33.1701 56.0153 32.5867 56.7228 32.2422 57.5507C31.8978 58.3785 31.8077 59.2893 31.9833 60.1682C32.1589 61.0469 32.5923 61.8541 33.2288 62.4876C33.8653 63.1213 34.6763 63.5527 35.5592 63.7275C36.442 63.9023 37.3571 63.8125 38.1887 63.4697C39.0204 63.1268 39.7311 62.5462 40.2312 61.8012C40.7313 61.0562 40.9982 60.1803 40.9982 59.2843C40.9982 58.0828 40.5187 56.9305 39.6652 56.0809C38.8117 55.2314 37.6541 54.7541 36.447 54.7541ZM27.6832 63.2046C27.026 63.5598 26.2899 63.7456 25.5422 63.7451C24.9115 63.7443 24.2881 63.6112 23.7127 63.3546C23.1372 63.0979 22.6226 62.7233 22.2022 62.2553L22.0771 62.1162V67H20.9996V54.8267H22.0771V56.4527L22.2022 56.3135C22.7003 55.7583 23.3301 55.3359 24.034 55.085C24.7381 54.834 25.494 54.7623 26.2329 54.8766C26.9719 54.9909 27.6703 55.2873 28.2647 55.7391C28.859 56.1908 29.3303 56.7834 29.6357 57.4629C29.9411 58.1424 30.0708 58.8871 30.013 59.6292C29.9552 60.3714 29.7117 61.0872 29.3048 61.7118C28.8978 62.3363 28.3404 62.8495 27.6832 63.2046ZM27.3928 56.5274C26.845 56.1631 26.201 55.9686 25.5422 55.9686C24.6591 55.9702 23.8128 56.32 23.1884 56.9415C22.564 57.563 22.2125 58.4055 22.211 59.2844C22.211 59.9402 22.4064 60.5813 22.7724 61.1266C23.1384 61.6719 23.6587 62.0969 24.2674 62.3478C24.8761 62.5988 25.5458 62.6644 26.192 62.5365C26.8382 62.4086 27.4318 62.0928 27.8977 61.6291C28.3635 61.1653 28.6808 60.5745 28.8093 59.9313C28.9378 59.2881 28.8719 58.6214 28.6197 58.0155C28.3676 57.4097 27.9406 56.8918 27.3928 56.5274Z" fill="white"/>
</svg>
