<svg width="130" height="53" viewBox="0 0 130 53" fill="none" xmlns="http://www.w3.org/2000/svg">
<path d="M53.6007 0.0070141C47.5877 0.165228 43.2707 4.27879 41.2663 6.73111C37.0109 5.30169 32.4621 5.05602 28.084 6.01915C23.5357 6.96843 17.0602 9.34164 12.3577 13.297C4.03203 20.1793 -0.362079 28.5646 0.0233693 36.8709C0.115269 39.2699 0.730987 41.6172 1.82508 43.7394C2.91918 45.8616 4.46372 47.7047 6.34472 49.1325C12.7432 54.1953 22.9961 53.0878 27.1589 52.3758C31.553 51.5848 101.628 38.6903 111.032 36.8709C119.821 35.1305 128.146 32.0453 129.842 21.2077C129.929 20.5519 129.98 19.8916 129.997 19.23C130.06 16.6281 129.243 14.0841 127.684 12.0313C124.909 8.78789 120.514 8.39235 117.431 8.39235C114.964 8.39235 97.2334 8.70878 66.0121 9.34164C65.6461 7.42607 64.8253 5.63273 63.6223 4.12058C62.0034 2.15081 58.9199 -0.143289 53.6007 0.0070141ZM42.0372 8.07593C43.9645 5.70272 47.896 1.66826 53.6778 1.51005C58.4573 1.35183 61.1555 3.32951 62.6202 5.06986C63.836 6.52483 64.6128 8.31148 64.8558 10.2118L64.9329 10.8447H65.5264C70.4602 10.7656 113.399 9.89539 117.485 9.89539C120.26 9.89539 124.346 10.2118 126.659 13.0597C128.003 14.8162 128.711 16.9971 128.663 19.23V19.3091C128.653 19.8923 128.602 20.474 128.509 21.0495C126.967 31.017 119.104 33.8648 110.855 35.5261C101.604 37.1873 31.4528 50.1608 26.9816 50.9519C23.05 51.6639 13.1826 52.6923 7.24667 48.025C5.5124 46.7286 4.08989 45.0425 3.08782 43.0956C2.08575 41.1487 1.53065 38.9925 1.46495 36.7918C1.0795 28.9602 5.31943 21.0495 13.2597 14.4045C17.7335 10.9676 22.8936 8.59021 28.3692 7.44307C32.6737 6.4628 37.1595 6.7368 41.3203 8.23414L41.7828 8.39235L42.0372 8.07593ZM58.9199 28.4855C57.7635 28.4064 56.6843 30.4632 57.8406 32.2036C58.602 31.6716 59.2348 30.9681 59.6908 30.1468C60.1302 29.1263 59.7678 28.4855 58.9199 28.4855ZM91.0662 22.2361C90.9605 22.1744 90.841 22.1419 90.7193 22.1419C90.5977 22.1419 90.4782 22.1744 90.3724 22.2361C89.9099 22.4734 89.2932 23.2645 89.4474 23.8182C89.5245 23.9764 89.6015 24.2929 90.2183 24.2138C90.6249 24.2078 91.0128 24.0372 91.2975 23.7391C91.36 23.4869 91.3718 23.2242 91.332 22.9671C91.2923 22.71 91.2018 22.464 91.0662 22.244V22.2361ZM118.433 20.0211C118.262 20.2915 118.191 20.6159 118.234 20.9354C118.276 21.2548 118.429 21.548 118.664 21.7614C118.85 21.1476 118.928 20.5048 118.896 19.8629C118.819 19.7838 118.587 19.7838 118.433 20.029V20.0211ZM118.741 16.0657C118.574 15.9076 118.352 15.8225 118.125 15.8284C116.506 15.9075 115.349 21.7614 115.272 24.0555C115.272 25.0839 115.427 25.3213 115.735 25.6377C115.889 25.875 116.197 25.875 116.506 25.875C117.431 25.7959 117.893 24.6093 118.279 23.5018L118.433 23.0271C118.059 22.7852 117.754 22.445 117.551 22.0416C117.347 21.6383 117.253 21.1865 117.277 20.733C117.431 18.2016 119.127 18.1225 119.127 18.1225V18.0434C119.228 17.3577 119.083 16.6575 118.718 16.0736L118.741 16.0657ZM118.741 16.0657C118.574 15.9076 118.352 15.8225 118.125 15.8284C116.506 15.9075 115.349 21.7614 115.272 24.0555C115.272 25.0839 115.427 25.3213 115.735 25.6377C115.889 25.875 116.197 25.875 116.506 25.875C117.431 25.7959 117.893 24.6093 118.279 23.5018L118.433 23.0271C118.059 22.7852 117.754 22.445 117.551 22.0416C117.347 21.6383 117.253 21.1865 117.277 20.733C117.431 18.2016 119.127 18.1225 119.127 18.1225V18.0434C119.228 17.3577 119.083 16.6575 118.718 16.0736L118.741 16.0657ZM118.433 20.0211C118.262 20.2915 118.191 20.6159 118.234 20.9354C118.276 21.2548 118.429 21.548 118.664 21.7614C118.85 21.1476 118.928 20.5048 118.896 19.8629C118.819 19.7838 118.587 19.7838 118.433 20.029V20.0211ZM90.3724 22.2361C89.9099 22.4734 89.2932 23.2645 89.4474 23.8182C89.5245 23.9764 89.6015 24.2929 90.2183 24.2138C90.6249 24.2078 91.0128 24.0372 91.2975 23.7391C91.3611 23.4857 91.3734 23.2215 91.3337 22.963C91.2939 22.7045 91.2029 22.4571 91.0662 22.2361C90.9599 22.1756 90.84 22.1445 90.7183 22.1459C90.5967 22.1472 90.4775 22.1811 90.3724 22.244V22.2361ZM58.9199 28.4855C57.7635 28.4064 56.6843 30.4632 57.8406 32.2036C58.602 31.6716 59.2348 30.9681 59.6908 30.1468C60.1302 29.1263 59.7678 28.4855 58.9199 28.4855ZM124.446 20.4957L124.061 19.6255L123.906 19.3091C123.906 19.2881 123.898 19.268 123.884 19.2532C123.869 19.2383 123.85 19.23 123.829 19.23C123.748 19.2397 123.669 19.2666 123.598 19.3091L122.21 20.3375V19.7838C122.288 18.5972 122.056 16.4613 121.131 15.512C120.646 15.0339 120.059 14.6779 119.417 14.472C118.775 14.2661 118.095 14.2159 117.431 14.3254C115.819 14.4425 114.271 15.0177 112.96 15.9866C111.806 17.071 110.887 18.3915 110.262 19.8629C110.262 19.8629 110.339 19.0718 110.339 18.3598C110.387 17.3495 110.056 16.3587 109.414 15.5911C108.72 14.8 107.563 14.4836 106.099 14.5627C105.106 14.7076 104.186 15.1796 103.478 15.9075C103.555 15.6702 103.786 14.8 103.786 14.8L98.2356 15.1165L96.6938 16.3822L95.6916 21.0495C95.6538 20.9751 95.6278 20.895 95.6145 20.8122C95.3727 20.1282 94.9152 19.5467 94.3147 19.1597C93.7143 18.7728 93.0051 18.6027 92.2997 18.6763C91.3491 18.7603 90.4281 19.0574 89.6015 19.5464L89.0619 19.8629L90.1412 15.4329L83.3573 15.6702L81.2759 17.4897L81.7384 15.6702L74.2607 15.7493L73.9523 17.015L73.644 16.6195C73.333 16.2375 72.9361 15.9389 72.4876 15.7493C70.8688 15.1165 67.9394 15.6702 66.4746 16.8568C63.2369 19.7047 63.0827 24.4511 62.8514 27.2989C62.6973 29.4348 62.5431 30.305 62.3118 30.4632C62.3348 29.8116 62.2071 29.1636 61.9391 28.5724C61.6711 27.9811 61.2705 27.4634 60.77 27.0616C60.1779 26.7148 59.5184 26.5066 58.8387 26.4519C58.1591 26.3972 57.476 26.4973 56.8384 26.7452C54.1634 27.6312 53.5236 29.1184 53.4542 29.3399L57.6864 16.5404C57.6864 16.5404 55.9905 16.6195 55.2966 16.6195C57.6093 15.9866 58.997 14.4045 59.1511 12.1104V11.9522C59.1509 11.3656 59.0267 10.786 58.7871 10.2534C58.5476 9.72077 58.1984 9.24778 57.7635 8.867C56.7308 8.03522 55.453 7.58885 54.1403 7.60129C53.1974 7.61712 52.262 7.77709 51.3651 8.07593C50.0546 8.47146 47.5106 9.89539 47.2793 12.7432C47.1822 13.2915 47.1936 13.8541 47.3128 14.3978C47.432 14.9414 47.6565 15.4548 47.9731 15.9075C48.4198 16.4087 49.0166 16.7427 49.6691 16.8568C48.744 16.8568 47.9731 16.9359 47.896 16.9359C47.819 16.9359 46.6626 18.1225 46.5855 18.2016C46.4313 18.6763 45.4292 22.157 44.6583 24.1346C44.0471 25.7919 43.3259 27.4042 42.4998 28.9602C40.11 33.3111 37.0264 36.0007 33.7115 36.95C31.3218 37.6619 29.5487 37.5828 28.084 36.7918C26.6193 36.0007 25.54 33.7066 25.54 31.2543C25.6657 28.6735 26.2948 26.1449 27.3902 23.8182C29.9342 18.5972 32.0156 17.3314 33.8657 16.6195C35.4075 16.0657 36.4097 16.2239 36.6409 16.3822C36.2555 16.6195 35.9471 16.7777 35.9471 16.7777C33.3261 18.3598 31.553 20.8913 31.3989 23.4227C31.306 24.1531 31.3756 24.8956 31.6026 25.5944C31.8296 26.2931 32.208 26.93 32.7094 27.4571C33.2176 27.9796 33.8377 28.3732 34.5202 28.6067C35.2027 28.8401 35.9288 28.907 36.6409 28.802C40.2642 28.4855 43.6561 24.8466 43.8874 21.0495C44.0013 20.1292 43.9227 19.1945 43.6568 18.3079C43.391 17.4212 42.9439 16.6029 42.3456 15.9075C40.4183 13.6925 38.1057 12.9806 33.8657 13.0597C29.6074 13.3071 25.4987 14.7582 21.9939 17.2523C17.521 20.2926 14.201 24.8165 12.589 30.0677C11.3555 33.9439 12.3577 38.9277 14.8246 41.4591C18.1394 44.7025 22.3023 45.5726 28.7007 44.3069C33.0948 43.4368 37.3348 40.9053 41.3434 36.7127L41.7289 36.3171L41.806 36.7918C41.9235 37.5995 42.2421 38.3624 42.731 39.0068C43.5019 39.956 45.0437 40.9844 48.2044 40.5889C50.2858 40.2725 52.6756 39.165 55.5279 37.1873L55.6821 37.1082L55.8363 37.1873C57.0697 37.9784 58.6886 38.7694 61.7722 38.0575H61.8493C63.171 37.8232 64.4328 37.317 65.5589 36.5692C66.685 35.8215 67.6521 34.8478 68.4019 33.7066C68.7728 33.1223 69.1075 32.5146 69.4041 31.8871L69.7895 30.9378L69.8666 31.9662C69.9437 33.3902 70.1749 34.4186 70.8688 35.1305C71.3561 35.5721 71.9388 35.8885 72.5688 36.0536C73.1988 36.2186 73.8579 36.2276 74.492 36.0798C77.3443 35.6052 79.2715 33.1528 80.505 31.4125L80.7362 31.0961L80.9675 31.4916C81.9697 33.4693 84.6678 34.4186 87.8285 33.9439C88.9721 33.7974 90.0747 33.4131 91.0687 32.8147C92.0628 32.2162 92.9276 31.4161 93.6102 30.4632L93.8415 30.1468L93.2248 32.5991L101.011 31.3334L102.398 25.3213C102.398 26.1676 102.449 27.0131 102.553 27.8527C102.679 28.5714 102.97 29.2492 103.401 29.8303C103.786 30.177 104.243 30.4285 104.737 30.5656C105.232 30.7027 105.75 30.7218 106.253 30.6214C107.251 30.4399 108.2 30.0428 109.038 29.4563C109.875 28.8699 110.581 28.1075 111.11 27.2198L111.341 26.8243L111.495 27.2989C112.035 28.6437 114.039 29.5139 115.889 29.1975C117.085 29.0349 118.218 28.5555 119.178 27.8064C120.138 27.0573 120.891 26.0644 121.362 24.9257L121.44 24.8466H121.517C122.217 24.5775 122.847 24.1441 123.356 23.581C123.864 23.0179 124.238 22.3406 124.446 21.6032C124.486 21.2378 124.486 20.869 124.446 20.5036V20.4957ZM49.4378 11.6357C49.6102 10.6807 50.1349 9.83068 50.9025 9.26253C52.029 8.46402 53.3942 8.09977 54.757 8.23414C57.4552 8.39235 58.7657 10.2118 58.6115 11.9522C58.4573 14.5627 56.0675 15.7493 53.6007 15.8284C51.9047 15.9075 50.5942 15.4329 49.8233 14.4045C49.5635 14.0025 49.3941 13.5462 49.3274 13.0686C49.2608 12.5911 49.2985 12.1044 49.4378 11.6437V11.6357ZM121.44 23.5018H121.285L121.208 23.66C120.82 24.743 120.145 25.6938 119.26 26.4062C118.375 27.1187 117.315 27.5647 116.197 27.6945C115.217 27.855 114.214 27.6131 113.407 27.0209C112.599 26.4287 112.05 25.534 111.88 24.5302L111.803 24.1346C110.03 28.09 108.026 28.8811 106.484 29.1184C105.867 29.1975 103.709 29.2766 103.94 26.587C104.089 25.0866 104.373 23.6036 104.788 22.157C105.095 21.2377 105.276 20.2794 105.328 19.3091C105.348 19.1252 105.331 18.9389 105.278 18.7619C105.225 18.5849 105.137 18.4211 105.019 18.2807C104.967 18.2051 104.898 18.1439 104.817 18.1025C104.737 18.0611 104.647 18.0408 104.557 18.0434C103.632 18.0434 102.784 20.5748 102.476 21.9197C102.476 21.9197 100.702 29.5139 100.625 29.9095C100.317 29.9095 96.3854 30.6214 95.7687 30.7005L97.3105 24.4511L97.0022 24.6884C96.6333 24.9298 96.2467 25.1414 95.8458 25.3213L95.6916 25.4004V25.5586C94.9207 29.4348 92.3768 31.7289 88.1368 32.3618C84.8991 32.8364 82.6635 31.7289 82.2009 28.8811L82.0468 28.1691L81.8155 28.5646L81.6613 28.802C80.5821 30.7005 78.3465 33.9439 75.2629 34.4186C74.7778 34.5195 74.2769 34.5079 73.7968 34.3848C73.3166 34.2616 72.8693 34.0299 72.4876 33.7066C72.0932 33.2759 71.7929 32.7638 71.6068 32.2045C71.4207 31.6451 71.353 31.0515 71.4084 30.4632C71.5636 28.6183 71.9791 26.8063 72.6418 25.0839L72.796 24.5302C72.796 24.5302 73.7211 21.2077 73.8753 20.5748C74.0294 19.942 73.5669 18.9927 72.7189 19.3882C72.5372 19.4681 72.3743 19.5872 72.2413 19.7373C72.1083 19.8874 72.0083 20.0652 71.948 20.2584C71.7167 21.0362 71.5364 21.8291 71.4084 22.6316C70.9458 25.2421 70.0979 30.0677 68.4019 32.52C66.3205 35.6843 63.8536 36.3171 62.9285 36.4753C61.9751 36.6487 60.9971 36.6187 60.0555 36.3874C59.1138 36.156 58.2287 35.7282 57.4552 35.1305C55.0309 36.9918 52.1985 38.2142 49.2066 38.6903C44.2728 39.3232 43.1936 36.0798 43.9645 32.9946V32.7573C40.5725 36.95 35.8701 40.9053 30.2425 42.0128C23.9212 43.2785 20.2979 42.2501 17.3685 39.4814C15.2871 37.5037 13.9766 33.1528 14.9788 29.5139C17.8311 18.7554 27.8527 13.9298 34.4054 13.7716C38.6453 13.6925 40.5725 14.5627 42.1914 16.3031C42.7144 16.8857 43.1144 17.5729 43.3665 18.3216C43.6185 19.0703 43.7171 19.8643 43.6561 20.6539C43.6364 22.1465 43.0706 23.5769 42.0709 24.6613C41.0713 25.7456 39.711 26.4048 38.2598 26.5079C37.6799 26.5821 37.0913 26.5288 36.533 26.3515C35.9748 26.1741 35.4597 25.8769 35.0221 25.4795C34.5982 25.0016 34.2763 24.438 34.0772 23.825C33.8781 23.2119 33.806 22.5629 33.8657 21.9197C33.9428 19.5464 35.8701 17.6479 37.0264 17.015C37.4629 16.7484 37.9287 16.5359 38.414 16.3822C38.8766 15.5911 31.553 13.3761 27.0047 23.3436C26.1278 25.1356 25.5296 27.0574 25.2317 29.0393C24.4608 33.2319 25.6171 36.1589 27.5444 37.4246C29.0091 38.2948 31.2447 38.453 34.1741 37.6619C39.6474 36.1589 44.8895 29.0393 46.7397 23.8182C47.6648 21.1286 48.5898 18.2016 48.8211 17.4897C49.2066 17.4106 56.2988 17.1732 56.9926 17.1732L52.9069 29.7512C52.8298 30.1468 51.9818 32.9155 52.5985 33.7857C52.7828 33.9901 53.0115 34.1468 53.2661 34.243C53.5207 34.3392 53.7938 34.3723 54.0632 34.3395C54.928 34.1503 55.743 33.7726 56.453 33.2319C55.8755 32.2615 55.6566 31.1106 55.8363 29.9886C56.2988 27.6945 58.6886 25.875 60.8471 27.378C61.9264 28.1691 62.466 29.6721 61.3867 31.4916C60.8926 32.3776 60.2069 33.1354 59.3824 33.7066C59.8729 33.9942 60.4519 34.0791 61.0013 33.9439C63.8536 33.5484 64.7787 30.7005 65.3183 26.5079V26.3496C65.7038 22.8689 66.3976 19.3882 68.9415 17.015C71.3313 14.8 74.492 16.8568 74.6461 18.4389L75.1858 16.5404C75.1858 16.5404 80.5821 16.3822 81.1988 16.3822C80.9675 17.0941 78.1923 27.5362 78.1923 27.5362L78.1152 28.4855C78.1094 28.7193 78.1923 28.9462 78.3465 29.1184C78.4191 29.1846 78.5053 29.2332 78.5987 29.2606C78.6921 29.288 78.7903 29.2935 78.8861 29.2766C80.0424 29.1184 81.43 26.7452 82.278 24.5302V24.4511C82.3969 23.8357 82.5514 23.2282 82.7406 22.6316L82.8947 21.9988C82.8947 21.9988 83.974 17.4106 84.2053 16.3031C84.5907 16.2239 89.4474 16.0657 89.4474 16.0657C89.4474 16.0657 86.6721 27.6945 86.6721 29.1184C86.6186 29.37 86.6257 29.6312 86.6929 29.8794C86.7601 30.1275 86.8852 30.3551 87.0576 30.5423C87.1298 30.6355 87.2253 30.7069 87.3339 30.7487C87.4425 30.7905 87.5602 30.8012 87.6743 30.7796C89.2932 30.5423 90.4495 29.0393 90.9121 26.1914L90.9892 25.7168L90.6037 25.875C87.2118 26.9034 87.0576 19.7047 92.6851 19.23C94.9207 18.9927 95.4604 21.2868 95.5374 21.9988C95.6328 22.2788 95.6848 22.5724 95.6916 22.8689V23.1854L96 23.1063C96.7228 22.8359 97.3436 22.3374 97.773 21.6823L99.2377 15.6702C99.5461 15.6702 102.784 15.512 103.324 15.512C103.254 15.8838 102.977 17.1574 102.946 17.3156L103.555 16.5246C104.358 15.7543 105.389 15.2811 106.484 15.1797C108.257 15.0215 110.03 15.6544 109.799 18.5813C109.65 19.8092 109.418 21.0251 109.105 22.2203C108.951 23.1695 108.72 23.8815 108.72 24.3561C108.71 24.4726 108.726 24.5898 108.766 24.6992C108.806 24.8086 108.869 24.9076 108.951 24.989C109.028 25.1472 109.182 25.1472 109.336 25.1472C110.03 25.0681 111.11 22.9322 111.649 21.4292V21.3659C111.76 19.7358 112.421 18.1962 113.518 17.0122C114.616 15.8282 116.081 15.0739 117.662 14.8791C121.362 14.6418 121.902 17.1732 121.825 19.6255C121.825 20.1793 121.594 21.9197 121.594 21.9197L121.902 21.8405C122.661 21.4999 123.266 20.8785 123.598 20.1002C123.829 20.3375 123.829 20.6539 124.061 20.8913C123.891 21.5278 123.558 22.1063 123.097 22.5666C122.637 23.027 122.064 23.3526 121.44 23.5097V23.5018ZM118.125 15.8284C116.506 15.9075 115.349 21.7614 115.272 24.0555C115.272 25.0839 115.427 25.3213 115.735 25.6377C115.889 25.875 116.197 25.875 116.506 25.875C117.431 25.7959 117.893 24.6093 118.279 23.5018L118.433 23.0271C118.059 22.7852 117.754 22.445 117.551 22.0416C117.347 21.6383 117.253 21.1865 117.277 20.733C117.431 18.2016 119.127 18.1225 119.127 18.1225V18.0434C119.237 17.358 119.1 16.6549 118.741 16.0657C118.574 15.9076 118.352 15.8225 118.125 15.8284ZM118.433 20.0211C118.262 20.2915 118.191 20.6159 118.234 20.9354C118.276 21.2548 118.429 21.548 118.664 21.7614C118.85 21.1476 118.928 20.5048 118.896 19.8629C118.819 19.7838 118.587 19.7838 118.433 20.029V20.0211ZM90.3724 22.2361C89.9099 22.4734 89.2932 23.2645 89.4474 23.8182C89.5245 23.9764 89.6015 24.2929 90.2183 24.2138C90.6249 24.2078 91.0128 24.0372 91.2975 23.7391C91.3611 23.4857 91.3734 23.2215 91.3337 22.963C91.2939 22.7045 91.2029 22.4571 91.0662 22.2361C90.9599 22.1756 90.84 22.1445 90.7183 22.1459C90.5967 22.1472 90.4775 22.1811 90.3724 22.244V22.2361ZM58.9199 28.4855C57.7635 28.4064 56.6843 30.4632 57.8406 32.2036C58.602 31.6716 59.2348 30.9681 59.6908 30.1468C60.1302 29.1263 59.7678 28.4855 58.9199 28.4855Z" fill="white"/>
</svg>
