<svg width="130" height="38" viewBox="0 0 130 38" fill="none" xmlns="http://www.w3.org/2000/svg">
<path d="M20.2253 15.9561C20.4784 16.1687 20.6799 16.4345 20.8149 16.7339C20.95 17.0333 21.0152 17.3588 21.0057 17.6863V20.1855C21.0085 20.5121 20.9403 20.8354 20.8057 21.1339C20.6711 21.4323 20.4732 21.6989 20.2253 21.9157C19.7306 22.3689 19.08 22.6208 18.4044 22.6206H18.2743C17.5988 22.6208 16.9482 22.3689 16.4534 21.9157C16.2004 21.7031 15.9989 21.4373 15.8638 21.1379C15.7288 20.8385 15.6636 20.513 15.6731 20.1855V17.6863C15.6703 17.3598 15.7385 17.0364 15.8731 16.738C16.0077 16.4395 16.2056 16.1729 16.4534 15.9561C16.9482 15.5029 17.5988 15.251 18.2743 15.2513H18.4044C19.08 15.251 19.7306 15.5029 20.2253 15.9561ZM27.4439 15.2513H27.3138C26.9771 15.2361 26.6409 15.2911 26.3272 15.4126C26.0134 15.534 25.7292 15.7192 25.4929 15.9561C25.2451 16.1729 25.0472 16.4395 24.9126 16.738C24.778 17.0364 24.7098 17.3598 24.7125 17.6863V20.1855C24.7031 20.513 24.7683 20.8385 24.9033 21.1379C25.0384 21.4373 25.2399 21.7031 25.4929 21.9157C25.9877 22.3689 26.6383 22.6208 27.3138 22.6206H27.3789C28.0761 22.6333 28.7515 22.3808 29.2648 21.9157C29.5127 21.6989 29.7106 21.4323 29.8452 21.1339C29.9798 20.8354 30.048 20.5121 30.0452 20.1855V17.6863C30.0547 17.3588 29.9895 17.0333 29.8544 16.7339C29.7194 16.4345 29.5179 16.1687 29.2648 15.9561C28.7701 15.5029 28.1195 15.251 27.4439 15.2513ZM44.2873 17.6863V20.1855C44.2837 20.511 44.2126 20.8324 44.0784 21.13C43.9442 21.4275 43.7497 21.6949 43.5069 21.9157C42.9872 22.3705 42.316 22.6213 41.621 22.6206H41.4909C40.7937 22.6333 40.1182 22.3808 39.605 21.9157C39.3519 21.7031 39.1504 21.4373 39.0154 21.1379C38.8803 20.8385 38.8151 20.513 38.8246 20.1855V17.6863C38.8218 17.3598 38.89 17.0364 39.0246 16.738C39.1592 16.4395 39.3571 16.1729 39.605 15.9561C40.1247 15.5013 40.7958 15.2505 41.4909 15.2513H41.621C42.3182 15.2385 42.9936 15.491 43.5069 15.9561C43.76 16.1687 43.9614 16.4345 44.0965 16.7339C44.2315 17.0333 44.2967 17.3588 44.2873 17.6863ZM58.7245 17.6863V20.1855C58.7208 20.511 58.6497 20.8324 58.5156 21.13C58.3814 21.4275 58.1869 21.6949 57.9441 21.9157C57.4244 22.3705 56.7532 22.6213 56.0581 22.6206H55.9281C55.2308 22.6333 54.5554 22.3808 54.0421 21.9157C53.7891 21.7031 53.5876 21.4373 53.4525 21.1379C53.3175 20.8385 53.2523 20.513 53.2618 20.1855V17.6863C53.259 17.3598 53.3272 17.0364 53.4618 16.738C53.5964 16.4395 53.7943 16.1729 54.0421 15.9561C54.5619 15.5013 55.233 15.2505 55.9281 15.2513H56.0581C56.7554 15.2385 57.4308 15.491 57.9441 15.9561C58.1971 16.1687 58.3986 16.4345 58.5337 16.7339C58.6687 17.0333 58.7339 17.3588 58.7245 17.6863ZM58.7245 17.6863V20.1855C58.7208 20.511 58.6497 20.8324 58.5156 21.13C58.3814 21.4275 58.1869 21.6949 57.9441 21.9157C57.4244 22.3705 56.7532 22.6213 56.0581 22.6206H55.9281C55.2308 22.6333 54.5554 22.3808 54.0421 21.9157C53.7891 21.7031 53.5876 21.4373 53.4525 21.1379C53.3175 20.8385 53.2523 20.513 53.2618 20.1855V17.6863C53.259 17.3598 53.3272 17.0364 53.4618 16.738C53.5964 16.4395 53.7943 16.1729 54.0421 15.9561C54.5619 15.5013 55.233 15.2505 55.9281 15.2513H56.0581C56.7554 15.2385 57.4308 15.491 57.9441 15.9561C58.1971 16.1687 58.3986 16.4345 58.5337 16.7339C58.6687 17.0333 58.7339 17.3588 58.7245 17.6863ZM44.2873 17.6863V20.1855C44.2837 20.511 44.2126 20.8324 44.0784 21.13C43.9442 21.4275 43.7497 21.6949 43.5069 21.9157C42.9872 22.3705 42.316 22.6213 41.621 22.6206H41.4909C40.7937 22.6333 40.1182 22.3808 39.605 21.9157C39.3519 21.7031 39.1504 21.4373 39.0154 21.1379C38.8803 20.8385 38.8151 20.513 38.8246 20.1855V17.6863C38.8218 17.3598 38.89 17.0364 39.0246 16.738C39.1592 16.4395 39.3571 16.1729 39.605 15.9561C40.1247 15.5013 40.7958 15.2505 41.4909 15.2513H41.621C42.3182 15.2385 42.9936 15.491 43.5069 15.9561C43.76 16.1687 43.9614 16.4345 44.0965 16.7339C44.2315 17.0333 44.2967 17.3588 44.2873 17.6863ZM89.0946 7.20872e-06V26.145C89.098 27.7028 88.7892 29.2459 88.1858 30.6857C87.5824 32.1255 86.6963 33.4338 85.5784 34.5353C84.4606 35.6368 83.1329 36.5099 81.6717 37.1045C80.2105 37.699 78.6445 38.0034 77.0636 38H0.000253445V11.9191C-0.0100456 10.3564 0.293638 8.80715 0.8938 7.36067C1.49396 5.91419 2.37873 4.59906 3.49711 3.49109C4.61549 2.38311 5.94536 1.50421 7.41006 0.905041C8.87476 0.305871 10.4453 -0.00171698 12.0312 7.20872e-06H89.0946ZM33.752 17.7504C33.7705 16.9679 33.6173 16.1907 33.3031 15.4719C32.9888 14.7531 32.5209 14.1095 31.9311 13.5852C31.3314 13.003 30.62 12.5445 29.8383 12.2364C29.0567 11.9283 28.2206 11.7769 27.3789 11.7909H27.3138C26.2958 11.7969 25.2934 12.0383 24.3874 12.4958C24.2043 12.2803 23.9754 12.107 23.717 11.9881C23.4586 11.8693 23.1768 11.8076 22.8916 11.8076C22.6064 11.8076 22.3247 11.8693 22.0663 11.9881C21.8078 12.107 21.579 12.2803 21.3959 12.4958C20.4899 12.0383 19.4875 11.7969 18.4694 11.7909H18.3394C17.5127 11.7745 16.6909 11.9188 15.9209 12.2157C15.1509 12.5126 14.4479 12.9562 13.8521 13.5211C13.2674 14.0493 12.8029 14.6936 12.489 15.4116C12.1752 16.1295 12.0191 16.9047 12.0312 17.6863V20.1855C12.0128 20.968 12.166 21.7452 12.4802 22.464C12.7945 23.1828 13.2624 23.8264 13.8521 24.3507C14.4479 24.9157 15.1509 25.3592 15.9209 25.6561C16.6909 25.953 17.5127 26.0974 18.3394 26.0809H18.4694C19.3614 26.0714 20.2437 25.8975 21.0707 25.5683V26.7858C21.0876 27.2597 21.2715 27.7129 21.591 28.0674C21.7625 28.2336 21.9658 28.3644 22.1891 28.4524C22.4124 28.5404 22.6512 28.5838 22.8916 28.5801C23.1174 28.5891 23.3428 28.5541 23.5548 28.4772C23.7669 28.4002 23.9614 28.2827 24.1273 28.1315C24.4525 27.8797 24.663 27.5109 24.7125 27.1062V25.6324C25.5376 25.9681 26.4212 26.1422 27.3138 26.145H27.4439C28.2706 26.1614 29.0924 26.0171 29.8624 25.7202C30.6323 25.4233 31.3353 24.9797 31.9311 24.4148C32.5159 23.8866 32.9804 23.2423 33.2943 22.5243C33.6081 21.8064 33.7641 21.0312 33.752 20.2496V17.7504ZM48.2543 17.6863C48.2633 16.8929 48.0929 16.1074 47.7554 15.3869C47.4179 14.6665 46.9219 14.0291 46.3033 13.5211C45.0183 12.3855 43.3468 11.7679 41.621 11.7909H41.4909C39.763 11.7563 38.0873 12.3755 36.8086 13.5211C36.1952 14.0335 35.7027 14.6717 35.3658 15.3912C35.0288 16.1106 34.8553 16.8939 34.8576 17.6863V20.1855C34.8486 20.9789 35.019 21.7644 35.3565 22.4849C35.6939 23.2053 36.19 23.8427 36.8086 24.3507C38.0873 25.4963 39.763 26.1155 41.4909 26.0809H41.621C43.3489 26.1155 45.0245 25.4963 46.3033 24.3507C46.9167 23.8384 47.4091 23.2001 47.7461 22.4806C48.0831 21.7612 48.2565 20.9779 48.2543 20.1855V17.6863ZM62.6914 17.7504C62.7005 16.957 62.53 16.1715 62.1926 15.451C61.8551 14.7306 61.3591 14.0932 60.7405 13.5852C59.4784 12.4059 57.7972 11.7616 56.0581 11.7909H55.9281C54.8675 11.7885 53.8209 12.0299 52.8716 12.4958C52.6866 12.265 52.4486 12.0807 52.1773 11.9582C51.906 11.8356 51.609 11.7783 51.3108 11.7909C50.8053 11.781 50.3157 11.9648 49.9451 12.3035C49.7623 12.4513 49.615 12.6371 49.5138 12.8476C49.4126 13.0581 49.36 13.2881 49.3598 13.5211V26.7858C49.3659 27.0271 49.4208 27.2647 49.5213 27.4848C49.6218 27.7048 49.7659 27.9029 49.9451 28.0674C50.3234 28.3939 50.808 28.5758 51.3108 28.5801C51.5621 28.593 51.8134 28.5541 52.0485 28.4658C52.2837 28.3775 52.4976 28.2418 52.6765 28.0674C52.8593 27.9197 53.0065 27.7339 53.1078 27.5234C53.209 27.3129 53.2616 27.0828 53.2618 26.8499V25.6324C54.1113 25.9622 55.015 26.136 55.9281 26.145H56.0581C57.786 26.1796 59.4617 25.5604 60.7405 24.4148C61.3539 23.9024 61.8463 23.2642 62.1833 22.5447C62.5203 21.8253 62.6937 21.042 62.6914 20.2496V17.7504ZM77.1286 13.5852C77.1127 13.0986 76.9023 12.638 76.5433 12.3035C76.1651 11.9771 75.6805 11.7952 75.1777 11.7909C74.8786 11.7717 74.5794 11.8261 74.3069 11.9491C74.0345 12.0722 73.7974 12.26 73.6169 12.4958C72.6675 12.0299 71.621 11.7885 70.5604 11.7909H70.4303C68.7024 11.7563 67.0267 12.3755 65.748 13.5211C65.1346 14.0335 64.6421 14.6717 64.3052 15.3912C63.9682 16.1106 63.7947 16.8939 63.797 17.6863V20.1855C63.788 20.9789 63.9584 21.7644 64.2959 22.4849C64.6333 23.2053 65.1294 23.8427 65.748 24.3507C67.0267 25.4963 68.7024 26.1155 70.4303 26.0809H70.5604C71.621 26.0833 72.6675 25.8419 73.6169 25.376C73.8019 25.6068 74.0398 25.7911 74.3111 25.9136C74.5825 26.0362 74.8795 26.0935 75.1777 26.0809C75.6831 26.0909 76.1727 25.9071 76.5433 25.5683C76.7326 25.4119 76.8835 25.2154 76.9849 24.9935C77.0863 24.7716 77.1354 24.5299 77.1286 24.2867V13.5852ZM72.3813 15.9561C72.6343 16.1687 72.8358 16.4345 72.9709 16.7339C73.1059 17.0333 73.1711 17.3588 73.1617 17.6863V20.1855C73.158 20.511 73.0869 20.8324 72.9527 21.13C72.8185 21.4275 72.6241 21.6949 72.3813 21.9157C71.868 22.3808 71.1926 22.6333 70.4953 22.6206H70.3653C69.668 22.6333 68.9926 22.3808 68.4793 21.9157C68.2263 21.7031 68.0248 21.4373 67.8897 21.1379C67.7547 20.8385 67.6895 20.513 67.6989 20.1855V17.6863C67.6961 17.3598 67.7644 17.0364 67.899 16.738C68.0336 16.4395 68.2315 16.1729 68.4793 15.9561C68.999 15.5013 69.6702 15.2505 70.3653 15.2513H70.4953C71.1926 15.2385 71.868 15.491 72.3813 15.9561ZM57.9441 15.9561C58.1971 16.1687 58.3986 16.4345 58.5337 16.7339C58.6687 17.0333 58.7339 17.3588 58.7245 17.6863V20.1855C58.7208 20.511 58.6497 20.8324 58.5156 21.13C58.3814 21.4275 58.1869 21.6949 57.9441 21.9157C57.4244 22.3705 56.7532 22.6213 56.0581 22.6206H55.9281C55.2308 22.6333 54.5554 22.3808 54.0421 21.9157C53.7891 21.7031 53.5876 21.4373 53.4525 21.1379C53.3175 20.8385 53.2523 20.513 53.2618 20.1855V17.6863C53.259 17.3598 53.3272 17.0364 53.4618 16.738C53.5964 16.4395 53.7943 16.1729 54.0421 15.9561C54.5619 15.5013 55.233 15.2505 55.9281 15.2513H56.0581C56.7554 15.2385 57.4308 15.491 57.9441 15.9561ZM43.5069 15.9561C43.76 16.1687 43.9614 16.4345 44.0965 16.7339C44.2315 17.0333 44.2967 17.3588 44.2873 17.6863V20.1855C44.2837 20.511 44.2126 20.8324 44.0784 21.13C43.9442 21.4275 43.7497 21.6949 43.5069 21.9157C42.9872 22.3705 42.316 22.6213 41.621 22.6206H41.4909C40.7937 22.6333 40.1182 22.3808 39.605 21.9157C39.3519 21.7031 39.1504 21.4373 39.0154 21.1379C38.8803 20.8385 38.8151 20.513 38.8246 20.1855V17.6863C38.8218 17.3598 38.89 17.0364 39.0246 16.738C39.1592 16.4395 39.3571 16.1729 39.605 15.9561C40.1247 15.5013 40.7958 15.2505 41.4909 15.2513H41.621C42.3182 15.2385 42.9936 15.491 43.5069 15.9561ZM44.2873 17.6863V20.1855C44.2837 20.511 44.2126 20.8324 44.0784 21.13C43.9442 21.4275 43.7497 21.6949 43.5069 21.9157C42.9872 22.3705 42.316 22.6213 41.621 22.6206H41.4909C40.7937 22.6333 40.1182 22.3808 39.605 21.9157C39.3519 21.7031 39.1504 21.4373 39.0154 21.1379C38.8803 20.8385 38.8151 20.513 38.8246 20.1855V17.6863C38.8218 17.3598 38.89 17.0364 39.0246 16.738C39.1592 16.4395 39.3571 16.1729 39.605 15.9561C40.1247 15.5013 40.7958 15.2505 41.4909 15.2513H41.621C42.3182 15.2385 42.9936 15.491 43.5069 15.9561C43.76 16.1687 43.9614 16.4345 44.0965 16.7339C44.2315 17.0333 44.2967 17.3588 44.2873 17.6863ZM44.2873 17.6863V20.1855C44.2837 20.511 44.2126 20.8324 44.0784 21.13C43.9442 21.4275 43.7497 21.6949 43.5069 21.9157C42.9872 22.3705 42.316 22.6213 41.621 22.6206H41.4909C40.7937 22.6333 40.1182 22.3808 39.605 21.9157C39.3519 21.7031 39.1504 21.4373 39.0154 21.1379C38.8803 20.8385 38.8151 20.513 38.8246 20.1855V17.6863C38.8218 17.3598 38.89 17.0364 39.0246 16.738C39.1592 16.4395 39.3571 16.1729 39.605 15.9561C40.1247 15.5013 40.7958 15.2505 41.4909 15.2513H41.621C42.3182 15.2385 42.9936 15.491 43.5069 15.9561C43.76 16.1687 43.9614 16.4345 44.0965 16.7339C44.2315 17.0333 44.2967 17.3588 44.2873 17.6863ZM106.133 17.0455C106.003 16.8533 105.873 16.661 106.003 16.4688C106.048 16.3995 106.113 16.3449 106.189 16.3119C106.266 16.2789 106.351 16.269 106.433 16.2833C106.515 16.2977 106.591 16.3357 106.651 16.3926C106.712 16.4496 106.753 16.5228 106.772 16.6031C106.79 16.6834 106.783 16.7672 106.753 16.8439C106.723 16.9207 106.67 16.9869 106.602 17.0342C106.534 17.0815 106.453 17.1078 106.369 17.1099C106.286 17.1119 106.204 17.0895 106.133 17.0455ZM105.613 18.4553H105.288C105.2 18.4577 105.114 18.4787 105.035 18.5167C104.957 18.5548 104.887 18.6091 104.832 18.676C104.776 18.7428 104.736 18.8207 104.713 18.9042C104.691 18.9878 104.687 19.0751 104.702 19.1602L105.548 23.9022C105.548 24.0944 105.808 24.2867 106.133 24.2867H106.458C106.587 24.3064 106.718 24.2778 106.827 24.2067C106.935 24.1355 107.013 24.0268 107.044 23.9022L106.393 19.032C106.349 18.8628 106.248 18.7135 106.106 18.6087C105.964 18.5039 105.79 18.4498 105.613 18.4553ZM109.125 18.4553H108.799C108.644 18.4553 108.495 18.5161 108.386 18.6242C108.276 18.7324 108.214 18.8791 108.214 19.032L108.604 23.9022C108.604 24.0944 108.864 24.2867 109.19 24.2867H109.515C109.84 24.2867 110.1 24.1585 110.035 23.9022L109.84 19.032C109.832 18.9477 109.807 18.8658 109.766 18.7911C109.726 18.7164 109.671 18.6503 109.604 18.5966C109.538 18.543 109.461 18.5029 109.379 18.4787C109.296 18.4544 109.21 18.4465 109.125 18.4553ZM112.766 18.4553H112.441C112.356 18.4465 112.269 18.4544 112.187 18.4787C112.105 18.5029 112.028 18.543 111.961 18.5966C111.895 18.6503 111.84 18.7164 111.799 18.7911C111.759 18.8658 111.734 18.9477 111.726 19.032L111.661 23.9022C111.661 24.0944 111.921 24.2867 112.246 24.2867H112.571C112.831 24.2867 113.157 24.1585 113.157 23.9022L113.417 19.032C113.415 18.9512 113.397 18.8715 113.363 18.7979C113.329 18.7244 113.28 18.6585 113.219 18.6044C113.158 18.5503 113.086 18.5092 113.008 18.4835C112.93 18.4579 112.848 18.4483 112.766 18.4553ZM115.368 17.0455C115.415 17.0162 115.456 16.978 115.488 16.933C115.52 16.8881 115.542 16.8374 115.554 16.7838C115.567 16.7302 115.568 16.6748 115.558 16.6207C115.548 16.5667 115.528 16.515 115.498 16.4688C115.48 16.4114 115.447 16.3597 115.402 16.3189C115.357 16.2781 115.302 16.2498 115.243 16.2368C115.183 16.2237 115.122 16.2265 115.063 16.2447C115.005 16.263 114.953 16.2961 114.912 16.3406C114.865 16.37 114.825 16.4082 114.793 16.4531C114.76 16.498 114.738 16.5487 114.726 16.6023C114.714 16.6559 114.712 16.7114 114.722 16.7654C114.732 16.8195 114.752 16.8711 114.782 16.9174C114.852 16.999 114.947 17.0557 115.053 17.0789C115.159 17.102 115.269 17.0903 115.368 17.0455ZM116.343 18.4553H116.018C115.841 18.4498 115.667 18.5039 115.525 18.6087C115.383 18.7135 115.282 18.8628 115.238 19.032L114.717 23.9022C114.652 24.0944 114.912 24.2867 115.238 24.2867H115.628C115.756 24.3064 115.888 24.2778 115.996 24.2067C116.105 24.1355 116.182 24.0268 116.213 23.9022L116.928 19.1602C116.943 19.0751 116.94 18.9878 116.917 18.9042C116.895 18.8207 116.855 18.7428 116.799 18.676C116.744 18.6091 116.674 18.5548 116.596 18.5167C116.517 18.4787 116.431 18.4577 116.343 18.4553ZM130 11.9191V26.0809C129.985 29.2374 128.705 32.2602 126.44 34.4922C124.175 36.7242 121.107 37.9848 117.904 38H103.532C100.336 37.9814 97.2765 36.7176 95.0225 34.4845C92.7685 32.2515 91.5024 29.2305 91.5008 26.0809V7.20872e-06H117.969C119.553 0.00336745 121.122 0.314423 122.584 0.915388C124.046 1.51635 125.374 2.39545 126.492 3.5024C127.609 4.60935 128.494 5.92247 129.096 7.36666C129.698 8.81085 130.005 10.3578 130 11.9191ZM120.375 16.0202C120.375 15.6998 119.985 15.4435 119.66 15.4435H115.498L112.766 10.9578C112.656 10.7957 112.488 10.6797 112.296 10.6324C112.104 10.585 111.901 10.6097 111.726 10.7015L111.401 10.8938C111.236 11.0026 111.118 11.1677 111.07 11.3571C111.022 11.5465 111.047 11.7468 111.141 11.9191L112.376 13.9056L113.287 15.4435L114.587 17.5582C114.457 17.43 114.262 17.3018 114.132 17.1737L112.701 15.4435H108.734L107.304 17.1737C107.174 17.3018 107.044 17.4941 106.848 17.5582L108.149 15.4435L109.06 13.9056L110.295 11.9191C110.347 11.835 110.381 11.7418 110.396 11.6446C110.411 11.5474 110.406 11.4483 110.382 11.3529C110.358 11.2576 110.315 11.1679 110.255 11.0891C110.196 11.0103 110.121 10.9439 110.035 10.8938L109.71 10.7015C109.625 10.6505 109.53 10.6166 109.431 10.6019C109.333 10.5872 109.232 10.5919 109.135 10.6157C109.039 10.6396 108.948 10.6821 108.868 10.7408C108.788 10.7995 108.72 10.8733 108.669 10.9578L105.938 15.4435H101.776C101.607 15.4554 101.449 15.5267 101.329 15.6444C101.21 15.7621 101.138 15.9183 101.126 16.0843L101.191 17.3018C101.209 17.4545 101.287 17.594 101.409 17.69C101.531 17.786 101.686 17.8307 101.841 17.8145H102.166L103.272 24.7993C103.597 26.145 104.507 26.145 105.808 26.145H116.083C117.319 26.145 117.904 26.0168 118.294 24.7352L119.4 17.8786H119.725C119.877 17.8816 120.025 17.832 120.144 17.7383C120.263 17.6446 120.345 17.5128 120.375 17.3659V16.0202Z" fill="white"/>
</svg>
